<?xml version="1.0" encoding="UTF-8"?>
<svg version="1.1" xmlns="http://www.w3.org/2000/svg" width="500" height="500">
<path d="M0 0 C1.7734375 1.4453125 1.7734375 1.4453125 3.375 3.125 C3.97441406 3.74890625 4.57382812 4.3728125 5.19140625 5.015625 C6.94140004 6.93570458 8.63007476 8.89567618 10.3125 10.875 C13.80397839 14.96161675 17.74838803 18.37728676 21.86328125 21.82421875 C24.12418873 24.12645909 25.03326077 25.95023148 26 29 C20.03631876 31.27078964 14.03435801 33.38953182 7.9921875 35.44140625 C7.04041626 35.765681 6.08864502 36.08995575 5.10803223 36.42405701 C2.03090279 37.47182414 -1.0469329 38.51749087 -4.125 39.5625 C-5.69420197 40.09532593 -5.69420197 40.09532593 -7.29510498 40.63891602 C-12.56858451 42.42902865 -17.84265852 44.21737667 -23.1171875 46.00439453 C-27.54000198 47.50344595 -31.9602646 49.00976954 -36.37893677 50.52098083 C-39.16164724 51.47128173 -41.94638805 52.41550037 -44.73187256 53.3576355 C-46.58222084 53.98548443 -48.43006142 54.62070853 -50.27783203 55.25610352 C-51.37466309 55.62533936 -52.47149414 55.9945752 -53.6015625 56.375 C-54.53307129 56.69210937 -55.46458008 57.00921875 -56.42431641 57.3359375 C-59 58 -59 58 -64 58 C-64 44.47 -64 30.94 -64 17 C-59.68837111 15.15215905 -56.00315702 13.59221669 -51.59375 12.3515625 C-50.11805542 11.93064331 -50.11805542 11.93064331 -48.61254883 11.5012207 C-47.58540771 11.21206787 -46.5582666 10.92291504 -45.5 10.625 C-38.56001401 8.63847685 -31.65264371 6.62113784 -24.8125 4.3125 C-23.66652344 3.92578125 -22.52054687 3.5390625 -21.33984375 3.140625 C-19.01656402 2.34717742 -16.69646038 1.54439392 -14.37890625 0.734375 C-13.22261719 0.34765625 -12.06632812 -0.0390625 -10.875 -0.4375 C-9.86179687 -0.78683594 -8.84859375 -1.13617188 -7.8046875 -1.49609375 C-4.42204289 -2.10383909 -2.98385995 -1.64609607 0 0 Z " fill="#8B52FC" transform="translate(316,214)"/>
<path d="M0 0 C1.27504912 0.39848864 2.55011439 0.79692562 3.82519531 1.1953125 C11.10791528 3.47629043 18.37937285 5.79112446 25.625 8.1875 C26.36250488 8.43024658 27.10000977 8.67299316 27.85986328 8.9230957 C32.75119132 10.56369132 32.75119132 10.56369132 33.875 11.6875 C33.96371273 14.71727804 33.9901935 17.72417022 33.97265625 20.75390625 C33.9712413 21.66252914 33.96982635 22.57115204 33.96836853 23.50730896 C33.96275193 26.42157221 33.95019665 29.33575981 33.9375 32.25 C33.93248714 34.22070202 33.92792386 36.19140524 33.92382812 38.16210938 C33.91277711 43.00393559 33.89550138 47.84570495 33.875 52.6875 C29.08361437 52.02438565 24.61798409 50.75850055 20.0390625 49.24609375 C19.29119476 49.00280334 18.54332703 48.75951294 17.77279663 48.5088501 C15.34712246 47.71847491 12.92354198 46.92188669 10.5 46.125 C8.8191059 45.57563551 7.13811565 45.02656511 5.45703125 44.4777832 C-6.50128852 40.56916579 -18.44430709 36.6146465 -30.37109375 32.61083984 C-35.28672123 30.96271013 -40.20611575 29.32587837 -45.125 27.6875 C-46.87501549 27.10421314 -48.62501714 26.52088476 -50.375 25.9375 C-52.23125 25.31875 -52.23125 25.31875 -54.125 24.6875 C-54.125 20.32694393 -53.99498146 20.03772979 -51.23828125 17.05859375 C-50.59842285 16.36362793 -49.95856445 15.66866211 -49.29931641 14.95263672 C-45.34947815 10.83781533 -41.35499457 6.77385124 -37.3125 2.75 C-36.45462891 1.88826172 -35.59675781 1.02652344 -34.71289062 0.13867188 C-33.89369141 -0.67923828 -33.07449219 -1.49714844 -32.23046875 -2.33984375 C-31.48949951 -3.07968506 -30.74853027 -3.81952637 -29.98510742 -4.58178711 C-23.36417158 -10.74215122 -7.66750448 -2.40821275 0 0 Z " fill="#8C52FC" transform="translate(213.125,219.3125)"/>
<path d="M0 0 C-1 2 -1 2 -2.99291992 2.73291016 C-3.83443604 2.95769043 -4.67595215 3.1824707 -5.54296875 3.4140625 C-10.3021636 4.76324497 -14.75960264 6.45822971 -19.3125 8.375 C-29.35527568 12.49662468 -39.56957656 16.10208821 -49.8125 19.6875 C-50.59887848 19.9631781 -51.38525696 20.2388562 -52.19546509 20.52288818 C-54.51110529 21.33372873 -56.82773669 22.1416833 -59.14453125 22.94921875 C-60.25971634 23.34046181 -60.25971634 23.34046181 -61.39743042 23.73960876 C-65.05283252 25.01365097 -68.71278759 26.23251678 -72.41918945 27.3503418 C-73.11449265 27.56499588 -73.80979584 27.77964996 -74.52616882 28.00080872 C-76.41514232 28.57924125 -78.31018566 29.13774534 -80.20556641 29.69482422 C-83.1389903 30.72306499 -83.1389903 30.72306499 -84.17675781 33.22143555 C-84.60823793 35.44802016 -84.60823793 35.44802016 -84.6953125 37.77734375 C-85.24921841 41.81801637 -87.94317745 43.50463465 -91 46 C-96.18436008 47.72812003 -101.82694871 47.94480491 -106.875 45.75 C-107.57625 45.1725 -108.2775 44.595 -109 44 C-110.0828125 43.2265625 -110.0828125 43.2265625 -111.1875 42.4375 C-113.96607574 38.70079469 -114.34166834 34.53902357 -115 30 C-115.804375 29.896875 -116.60875 29.79375 -117.4375 29.6875 C-123.86265954 28.44755693 -129.74834581 26.13576862 -135.75 23.5625 C-139.75942792 21.86252919 -143.733741 20.41033831 -147.91015625 19.1796875 C-154.90136675 17.06223866 -161.79184951 14.71174121 -168.67602539 12.27319336 C-170.69386105 11.56025252 -172.71498242 10.85721441 -174.73632812 10.15429688 C-182.08324373 7.57225676 -189.14534179 4.73327721 -196 1 C-196 0.67 -196 0.34 -196 0 C-189.45803164 -0.43979619 -183.87529335 1.1737826 -177.625 3 C-176.52357666 3.31541748 -175.42215332 3.63083496 -174.28735352 3.95581055 C-165.78410909 6.41719644 -157.33795541 9.04647844 -148.92431641 11.79785156 C-142.75543369 13.81450872 -136.5679667 15.73970425 -130.34765625 17.58984375 C-128.12857093 18.25702758 -125.90992856 18.92566355 -123.69143677 19.59481812 C-122.23639832 20.02983629 -120.77958056 20.45894898 -119.3210144 20.88198853 C-117.282087 21.47400128 -115.25029031 22.08631818 -113.21875 22.703125 C-112.04248047 23.05020508 -110.86621094 23.39728516 -109.65429688 23.75488281 C-107 25 -107 25 -106.09960938 26.95605469 C-106 29 -106 29 -106.1875 32 C-106.23280493 35.04942156 -106.23280493 35.04942156 -104.5 37.4375 C-101.29947959 39.43782525 -99.40915209 39.29371313 -95.7734375 38.59765625 C-93.87391427 38.10971903 -93.87391427 38.10971903 -92.5 36.4375 C-91.7751927 32.90406442 -91.87980329 29.60590139 -92 26 C-85.67355746 22.99278318 -79.33683007 20.73523991 -72.61328125 18.79296875 C-71.63497849 18.50448563 -70.65667572 18.2160025 -69.64872742 17.91877747 C-66.53832801 17.00252392 -63.42560614 16.09450991 -60.3125 15.1875 C-56.24510325 13.99684497 -52.17888577 12.80222823 -48.11328125 11.60546875 C-47.11048126 11.31106903 -46.10768127 11.01666931 -45.07449341 10.71334839 C-37.13368129 8.36885727 -29.24200841 5.88511203 -21.37654114 3.29911804 C-5.63159554 -1.81664372 -5.63159554 -1.81664372 0 0 Z " fill="#8D22CC" transform="translate(349,252)"/>
<path d="M0 0 C0.21615967 0.55349121 0.43231934 1.10698242 0.6550293 1.67724609 C6.22751709 16.10791703 6.22751709 16.10791703 13 30 C14.32 29.67 15.64 29.34 17 29 C17.08714316 25.08347368 17.14043985 21.16719689 17.1875 17.25 C17.21263672 16.13882812 17.23777344 15.02765625 17.26367188 13.8828125 C17.27817383 12.27792969 17.27817383 12.27792969 17.29296875 10.640625 C17.31653442 9.16384277 17.31653442 9.16384277 17.34057617 7.65722656 C16.94965182 4.60717591 16.03157056 3.25886277 14 1 C16.64 1 19.28 1 22 1 C22.43868408 1.84763916 22.43868408 1.84763916 22.88623047 2.71240234 C24.2119385 5.26863666 25.54339211 7.82183447 26.875 10.375 C27.33519531 11.26445312 27.79539063 12.15390625 28.26953125 13.0703125 C28.93662109 14.34648437 28.93662109 14.34648437 29.6171875 15.6484375 C30.02565918 16.43395996 30.43413086 17.21948242 30.85498047 18.02880859 C31.96812385 20.13896866 31.96812385 20.13896866 34 22 C34.3853894 21.05362671 34.3853894 21.05362671 34.77856445 20.08813477 C35.94522479 17.24146255 37.1285934 14.40204032 38.3125 11.5625 C38.91868164 10.07266602 38.91868164 10.07266602 39.53710938 8.55273438 C40.13168945 7.13637695 40.13168945 7.13637695 40.73828125 5.69140625 C41.09962158 4.81685791 41.46096191 3.94230957 41.83325195 3.04125977 C43 1 43 1 46 0 C50.13577658 -0.07523341 54.26331516 0.09455342 58.39672852 0.24194336 C60.42642022 0.31211693 62.45613501 0.36650222 64.48632812 0.41992188 C65.76830078 0.46310547 67.05027344 0.50628906 68.37109375 0.55078125 C70.1334436 0.60745972 70.1334436 0.60745972 71.93139648 0.6652832 C74.84399093 0.98298286 76.58039855 1.38968015 79 3 C80.85726616 6.71453232 80.58501089 10.95579425 80 15 C77.80977082 17.82424288 76.16982793 19.41508603 73 21 C71.12943209 21.2275015 69.25314042 21.40962811 67.375 21.5625 C65.87066406 21.68818359 65.87066406 21.68818359 64.3359375 21.81640625 C63.56507813 21.87699219 62.79421875 21.93757813 62 22 C62.020625 22.94875 62.04125 23.8975 62.0625 24.875 C62 28 62 28 61 30 C62.32 30.66 63.64 31.32 65 32 C60.62978682 33.07113068 56.34942701 33.18342493 51.875 33.1875 C51.15957031 33.19974609 50.44414062 33.21199219 49.70703125 33.22460938 C45.92179791 33.23522218 44.22632988 33.15088659 41 31 C41.66 30.01 42.32 29.02 43 28 C43.27441372 25.8729569 43.27441372 25.8729569 43.1953125 23.55078125 C43.18564453 22.27944336 43.18564453 22.27944336 43.17578125 20.98242188 C43.15902344 20.10134766 43.14226562 19.22027344 43.125 18.3125 C43.11597656 17.41982422 43.10695312 16.52714844 43.09765625 15.60742188 C43.07409748 13.40467686 43.04120329 11.20247412 43 9 C39.29402903 16.86927453 36.04386557 24.85280238 33 33 C30 32 30 32 28.83325195 30.14233398 C28.47191162 29.35157471 28.11057129 28.56081543 27.73828125 27.74609375 C27.34189453 26.89208984 26.94550781 26.03808594 26.53710938 25.15820312 C26.13298828 24.26037109 25.72886719 23.36253906 25.3125 22.4375 C24.89677734 21.53580078 24.48105469 20.63410156 24.05273438 19.70507812 C23.02586982 17.47430341 22.01172836 15.23768013 21 13 C21 18.94 21 24.88 21 31 C21.66 31.33 22.32 31.66 23 32 C16.74534844 33.13720937 10.34210188 33.56780578 4 33 C3.34 32.34 2.68 31.68 2 31 C2.375 29 2.375 29 3 27 C3 26.34 3 25.68 3 25 C-2.28 25.33 -7.56 25.66 -13 26 C-13.2981424 29.7763932 -13.2981424 29.7763932 -12 32 C-14.64 32 -17.28 32 -20 32 C-19.27039063 30.91460937 -18.54078125 29.82921875 -17.7890625 28.7109375 C-14.04268768 22.720434 -11.73588688 16.1789377 -9.21875 9.60546875 C-8.84492188 8.65542969 -8.47109375 7.70539063 -8.0859375 6.7265625 C-7.7564209 5.86627441 -7.4269043 5.00598633 -7.08740234 4.11962891 C-5.36421469 0.76068969 -3.71075438 0 0 0 Z M49 2 C49 11.24 49 20.48 49 30 C50.65 30.33 52.3 30.66 54 31 C56.60269085 28.39730915 56.25725649 27.28043207 56.265625 23.66015625 C56.26949219 22.0659082 56.26949219 22.0659082 56.2734375 20.43945312 C56.26570313 19.32505859 56.25796875 18.21066406 56.25 17.0625 C56.25773437 15.95197266 56.26546875 14.84144531 56.2734375 13.69726562 C56.27085937 12.63314453 56.26828125 11.56902344 56.265625 10.47265625 C56.26336914 9.49562744 56.26111328 8.51859863 56.25878906 7.51196289 C56.17187725 4.75242895 56.17187725 4.75242895 54 2 C52.35 2 50.7 2 49 2 Z M61 2 C61 7.28 61 12.56 61 18 C67.3509796 20.22020082 67.3509796 20.22020082 73 18 C75.46751239 14.29873141 75.30721156 12.37776468 75 8 C74.16951953 5.43935188 73.49609306 4.38161004 71.375 2.75 C68.14365767 1.59849151 68.14365767 1.59849151 61 2 Z M-5 6 C-6.17112946 8.62309099 -7.33705964 11.24828142 -8.5 13.875 C-8.83386719 14.62136719 -9.16773438 15.36773437 -9.51171875 16.13671875 C-9.82753906 16.85214844 -10.14335937 17.56757813 -10.46875 18.3046875 C-10.90864258 19.2944458 -10.90864258 19.2944458 -11.35742188 20.30419922 C-12.11811255 22.00946207 -12.11811255 22.00946207 -12 24 C-7.38 24 -2.76 24 2 24 C1.19950264 19.19701584 0.32420375 15.97893173 -1.5625 11.625 C-2.01753906 10.56539063 -2.47257812 9.50578125 -2.94140625 8.4140625 C-3.29074219 7.61742187 -3.64007813 6.82078125 -4 6 C-4.33 6 -4.66 6 -5 6 Z " fill="#F4F4F4" transform="translate(207,310)"/>
<path d="M0 0 C1.14656064 2.21122408 2.11509221 4.329931 2.9375 6.6875 C3.288125 7.450625 3.63875 8.21375 4 9 C6.63106761 10.05270463 6.63106761 10.05270463 8 10 C8.33 9.01 8.66 8.02 9 7 C8.34 6.01 7.68 5.02 7 4 C10.21490118 2.39254941 12.4301071 2.59694758 16 3 C18.92753815 4.7064533 21.52815138 6.68224064 24 9 C24 9.33 24 9.66 24 10 C22.35 10 20.7 10 19 10 C19 10.99 19 11.98 19 13 C19.721875 12.79375 20.44375 12.5875 21.1875 12.375 C24.44641585 11.94047789 26.08304504 12.58319331 29 14 C27.37660195 15.70884005 25.70680947 17.37446717 24 19 C23.34 19 22.68 19 22 19 C21.731875 19.57492188 21.46375 20.14984375 21.1875 20.7421875 C19.96979512 23.05742901 18.55195078 25.02210669 17 27.125 C13.76182764 31.8716868 12.68399977 36.35110539 12 42 C11.01 42 10.02 42 9 42 C8.0394728 39.62586674 7.08152647 37.25074481 6.125 34.875 C5.85558594 34.20984375 5.58617187 33.5446875 5.30859375 32.859375 C2.94034686 26.96763883 0.90324442 21.32271093 0 15 C-0.21914062 16.09957031 -0.43828125 17.19914062 -0.6640625 18.33203125 C-2.57566672 27.41009581 -4.88769176 35.11000429 -10 43 C-10.33 43 -10.66 43 -11 43 C-11.17015625 42.29875 -11.3403125 41.5975 -11.515625 40.875 C-14.43905944 29.43006518 -17.81957858 23.54992186 -27 16 C-27.66 15.34 -28.32 14.68 -29 14 C-27.35 13.67 -25.7 13.34 -24 13 C-24 11.68 -24 10.36 -24 9 C-18.6756246 4.02286647 -14.16746293 3.158636 -7 3 C-7 3.99 -7 4.98 -7 6 C-7.66 6.66 -8.32 7.32 -9 8 C-8.67 8.66 -8.34 9.32 -8 10 C-8.33 10.66 -8.66 11.32 -9 12 C-4.08029436 8.39221586 -2.03059135 5.75334215 0 0 Z M-20 10 C-20.66 11.32 -21.32 12.64 -22 14 C-20.35 14 -18.7 14 -17 14 C-17.33 12.68 -17.66 11.36 -18 10 C-18.66 10 -19.32 10 -20 10 Z " fill="#FAFAFA" transform="translate(250,165)"/>
<path d="M0 0 C-1 2 -1 2 -2.99291992 2.73291016 C-3.83443604 2.95769043 -4.67595215 3.1824707 -5.54296875 3.4140625 C-10.3021636 4.76324497 -14.75960264 6.45822971 -19.3125 8.375 C-29.35527568 12.49662468 -39.56957656 16.10208821 -49.8125 19.6875 C-50.59887848 19.9631781 -51.38525696 20.2388562 -52.19546509 20.52288818 C-62.43345736 24.10780577 -72.69889571 27.60056895 -83 31 C-83.33 32.98 -83.66 34.96 -84 37 C-84.33 37 -84.66 37 -85 37 C-85.29296875 30.9453125 -85.29296875 30.9453125 -85 29 C-82 27 -82 27 -78 27 C-78 26.34 -78 25.68 -78 25 C-81.96 25.33 -85.92 25.66 -90 26 C-89.79375 27.423125 -89.5875 28.84625 -89.375 30.3125 C-88.82716472 34.09256343 -88.76448241 34.64672361 -91 38 C-91.66 37.67 -92.32 37.34 -93 37 C-92.31640625 31.140625 -92.31640625 31.140625 -92 29 C-91.94980713 28.34209473 -91.89961426 27.68418945 -91.84790039 27.00634766 C-91 25 -91 25 -88.56591797 23.80126953 C-87.42783691 23.45692871 -86.28975586 23.11258789 -85.1171875 22.7578125 C-84.46748993 22.55624542 -83.81779236 22.35467834 -83.14840698 22.14700317 C-80.77040535 21.4146465 -78.3852174 20.70849255 -76 20 C-73.9803755 19.38516297 -71.96119743 18.76885828 -69.94238281 18.15136719 C-63.00970321 16.03764639 -56.06785029 13.95502512 -49.125 11.875 C-45.5376161 10.7991713 -41.95044079 9.72266254 -38.36373901 8.64456177 C-36.14811355 7.97867746 -33.93209312 7.31410536 -31.71560669 6.65109253 C-26.38409624 5.04971348 -21.08021361 3.39654819 -15.8097229 1.60385132 C-10.53169418 -0.15727167 -5.463348 -1.76237032 0 0 Z " fill="#8B24C9" transform="translate(349,252)"/>
<path d="M0 0 C4.34200946 0.09372888 8.68348678 0.19986502 13.02490234 0.31738281 C14.50105536 0.35560666 15.97729943 0.39047103 17.45361328 0.421875 C19.57878094 0.46766986 21.70332542 0.52563837 23.828125 0.5859375 C25.1059082 0.6173584 26.38369141 0.6487793 27.70019531 0.68115234 C30.74248726 0.97511752 32.499947 1.29775581 35 3 C36.85726616 6.71453232 36.58501089 10.95579425 36 15 C33.80977082 17.82424288 32.16982793 19.41508603 29 21 C27.12943209 21.2275015 25.25314042 21.40962811 23.375 21.5625 C21.87066406 21.68818359 21.87066406 21.68818359 20.3359375 21.81640625 C19.56507813 21.87699219 18.79421875 21.93757813 18 22 C18.020625 22.94875 18.04125 23.8975 18.0625 24.875 C18 28 18 28 17 30 C18.32 30.66 19.64 31.32 21 32 C16.62978682 33.07113068 12.34942701 33.18342493 7.875 33.1875 C7.15957031 33.19974609 6.44414062 33.21199219 5.70703125 33.22460938 C1.92179791 33.23522218 0.22632988 33.15088659 -3 31 C-2.01 29.515 -2.01 29.515 -1 28 C-0.63072954 24.9957293 -0.63072954 24.9957293 -0.5859375 21.58203125 C-0.54726562 20.32841797 -0.50859375 19.07480469 -0.46875 17.78320312 C-0.4378125 16.47287109 -0.406875 15.16253906 -0.375 13.8125 C-0.33680662 12.4771884 -0.29775409 11.14190108 -0.2578125 9.80664062 C-0.16340847 6.53790112 -0.07782983 3.26916936 0 0 Z M5 2 C5 11.24 5 20.48 5 30 C6.65 30.33 8.3 30.66 10 31 C12.60269085 28.39730915 12.25725649 27.28043207 12.265625 23.66015625 C12.26949219 22.0659082 12.26949219 22.0659082 12.2734375 20.43945312 C12.26570313 19.32505859 12.25796875 18.21066406 12.25 17.0625 C12.25773437 15.95197266 12.26546875 14.84144531 12.2734375 13.69726562 C12.27085937 12.63314453 12.26828125 11.56902344 12.265625 10.47265625 C12.26336914 9.49562744 12.26111328 8.51859863 12.25878906 7.51196289 C12.17187725 4.75242895 12.17187725 4.75242895 10 2 C8.35 2 6.7 2 5 2 Z M17 2 C17 7.28 17 12.56 17 18 C23.3509796 20.22020082 23.3509796 20.22020082 29 18 C31.46751239 14.29873141 31.30721156 12.37776468 31 8 C30.16951953 5.43935188 29.49609306 4.38161004 27.375 2.75 C24.14365767 1.59849151 24.14365767 1.59849151 17 2 Z " fill="#F8F8F8" transform="translate(251,310)"/>
<path d="M0 0 C17.75226644 4.20739787 51.35564419 14.82309479 61.765625 30.69140625 C62.17296875 31.45324219 62.5803125 32.21507812 63 33 C58.49992311 32.48176957 55.64717319 31.40911796 51.875 28.9375 C38.49753205 20.84104991 22.69257287 15.29085667 7.4375 12 C3.71800996 10.91796653 2.19853653 10.1658926 0 7 C-0.8125 3.8125 -0.8125 3.8125 -1 1 C-0.67 0.67 -0.34 0.34 0 0 Z " fill="#8824C5" transform="translate(185,189)"/>
<path d="M0 0 C-0.48739855 6.45803076 -0.48739855 6.45803076 -2.5 8.5859375 C-6.07736391 10.60938396 -9.76953531 11.37731629 -13.75 12.3125 C-27.20255719 15.6916634 -39.33326929 20.25231864 -51.41845703 27.10449219 C-54.96607442 29.08816114 -56.84560774 30 -61 30 C-56.84212074 24.37632459 -51.93800124 21.53347728 -46 18 C-44.95585937 17.35804688 -43.91171875 16.71609375 -42.8359375 16.0546875 C-10.23778314 -3.41259438 -10.23778314 -3.41259438 0 0 Z " fill="#8C25C5" transform="translate(316,191)"/>
<path d="M0 0 C0.495 0.495 0.495 0.495 1 1 C0.875 4.375 0.875 4.375 0 8 C-3.8741755 11.02463985 -8.09902265 11.86003288 -12.8125 12.8125 C-26.6630793 15.88378664 -38.93137396 21.17405738 -51.4387207 27.83642578 C-52.24913818 28.26036621 -53.05955566 28.68430664 -53.89453125 29.12109375 C-54.97504761 29.70008423 -54.97504761 29.70008423 -56.07739258 30.29077148 C-58 31 -58 31 -61 30 C-49.38095254 20.31746045 -36.4539838 12.83753943 -22.6875 6.6875 C-21.95917969 6.36209229 -21.23085938 6.03668457 -20.48046875 5.70141602 C-5.74892347 -0.71861543 -5.74892347 -0.71861543 0 0 Z " fill="#7F3AAC" transform="translate(324,175)"/>
<path d="M0 0 C19.07247754 2.50081459 42.2984583 13.80697013 57 26 C57.495 27.485 57.495 27.485 58 29 C57.01 29.495 57.01 29.495 56 30 C53.5657165 28.87998677 51.2341103 27.70004032 48.875 26.4375 C36.53920189 20.08770208 24.2362714 15.70488989 10.64941406 12.82348633 C2.79633003 11.05771803 2.79633003 11.05771803 0 7 C-0.25 3.25 -0.25 3.25 0 0 Z " fill="#8C24C7" transform="translate(176,174)"/>
<path d="M0 0 C1 3 1 3 0 5.5 C-4.61266327 11.26582908 -13.60961754 12.37084029 -20.4375 14.25 C-34.55644255 18.25752271 -47.2745585 23.63973405 -60 31 C-58.17001296 26.89742441 -55.72814526 25.30034495 -52 23 C-50.51854888 22.00338743 -49.03952195 21.00316508 -47.5625 20 C-40.62618465 15.2991454 -33.28641993 11.56433412 -25.75 7.9375 C-24.87214844 7.50373047 -23.99429688 7.06996094 -23.08984375 6.62304688 C-15.74952294 3.09259975 -8.23760557 0 0 0 Z " fill="#C6D6EC" transform="translate(334,160)"/>
<path d="M0 0 C1.4540625 0.7425 1.4540625 0.7425 2.9375 1.5 C1.3125 7.25 1.3125 7.25 -2.0625 9.5 C-2.51625 8.365625 -2.97 7.23125 -3.4375 6.0625 C-4.63345806 2.45278308 -4.63345806 2.45278308 -7.0625 1.5 C-10.10423894 1.33329727 -10.10423894 1.33329727 -13.0625 1.5 C-14.41868499 2.62534105 -14.41868499 2.62534105 -14.125 5.5625 C-14.104375 6.531875 -14.08375 7.50125 -14.0625 8.5 C-12.5465625 9.1496875 -12.5465625 9.1496875 -11 9.8125 C-10.04673828 10.22435547 -10.04673828 10.22435547 -9.07421875 10.64453125 C-7.77070237 11.1988421 -6.46099026 11.7388888 -5.14453125 12.26171875 C1.41677898 14.90582884 1.41677898 14.90582884 2.9375 17.5 C3.33669236 20.59374082 3.56663952 22.53900393 2.9375 25.5 C0.40296343 28.71954645 -1.17547305 30.20432435 -5.0625 31.5 C-11.31802106 31.8540861 -15.83069503 30.98786998 -21.0625 27.5 C-19.1875 22.75 -19.1875 22.75 -18.0625 20.5 C-17.4025 20.5 -16.7425 20.5 -16.0625 20.5 C-15.4025 22.81 -14.7425 25.12 -14.0625 27.5 C-12.62839632 27.74954005 -11.18989928 27.97392642 -9.75 28.1875 C-8.94949219 28.31511719 -8.14898437 28.44273437 -7.32421875 28.57421875 C-5.01646954 28.6889335 -5.01646954 28.6889335 -3.20703125 27.33203125 C-1.85088211 25.50240903 -1.85088211 25.50240903 -1.98046875 22.97265625 C-2.87298577 20.2248932 -2.87298577 20.2248932 -5.86328125 19.05859375 C-7.02214844 18.68863281 -8.18101562 18.31867188 -9.375 17.9375 C-13.92349439 16.46547886 -17.09596429 15.35721471 -20.0625 11.5 C-20.79054951 8.75910772 -20.63693241 6.26978794 -20.0625 3.5 C-15.30898218 -2.89266189 -6.90943439 -2.98329958 0 0 Z " fill="#F6F6F6" transform="translate(341.0625,311.5)"/>
<path d="M0 0 C17.18668904 2.52936178 33.76786702 11.33183636 48 21 C48.59232422 21.40202637 49.18464844 21.80405273 49.79492188 22.21826172 C53.55458251 24.77784337 57.2862844 27.37426328 61 30 C59.17578125 30.62890625 59.17578125 30.62890625 57 31 C55.44683025 29.86100885 53.89940845 28.71349793 52.37890625 27.53125 C48.13635769 24.80041414 43.34880508 23.21195403 38.65625 21.4140625 C35.7593151 20.29366674 32.94322229 19.11245465 30.125 17.8125 C22.68972507 14.46662628 14.95718041 12.38074456 7.05224609 10.4453125 C2.21763258 9.21763258 2.21763258 9.21763258 0 7 C-0.125 3.375 -0.125 3.375 0 0 Z " fill="#C3D1E7" transform="translate(167,159)"/>
<path d="M0 0 C2.3125 1.75 2.3125 1.75 3.5 3.5625 C3.18292067 7.26175889 0.81808906 9.18614142 -1.6875 11.75 C-2.3475 11.75 -3.0075 11.75 -3.6875 11.75 C-3.605 10.8425 -3.5225 9.935 -3.4375 9 C-3.43936027 5.73707224 -3.43936027 5.73707224 -5.1875 3.3125 C-8.34617343 1.33832911 -10.17787734 1.34053752 -13.78125 2.01953125 C-16.007066 2.71996755 -16.007066 2.71996755 -18.1875 5.3125 C-20.31189806 10.18091223 -20.53674963 13.94094353 -19.02734375 18.93359375 C-17.35848198 22.87095161 -16.08057643 24.5052543 -12.375 26.8125 C-7.47188882 28.05905369 -3.87896044 27.70525199 0.75 25.6875 C1.5234375 25.2234375 1.5234375 25.2234375 2.3125 24.75 C2.3125 25.74 2.3125 26.73 2.3125 27.75 C-3.37712749 31.70800173 -7.7882026 32.6752369 -14.6875 31.75 C-19.96847404 29.95646165 -22.48645251 27.14000798 -25.6875 22.75 C-27.21750855 18.15997435 -27.57314272 13.43893935 -26.0390625 8.78125 C-20.6326226 -1.75437648 -10.82487589 -3.66944945 0 0 Z " fill="#F3F3F3" transform="translate(182.6875,311.25)"/>
<path d="M0 0 C0.66 0.66 1.32 1.32 2 2 C1.67 2.33 1.34 2.66 1 3 C0.87922387 4.49025773 0.82045345 5.98565452 0.7890625 7.48046875 C0.74652344 8.8562207 0.74652344 8.8562207 0.703125 10.25976562 C0.65156767 12.1918766 0.60714609 14.12419288 0.5703125 16.05664062 C0.3914085 21.39767058 0.05623356 25.41931421 -3 30 C-6.89713442 32.71893099 -10.37341317 33.54819906 -15.0390625 33.3515625 C-18.41318809 32.74663959 -20.46578179 31.23252557 -23 29 C-26.17920233 23.45284007 -25.42514085 16.59969744 -25.56640625 10.39648438 C-25.59605469 9.47802734 -25.62570312 8.55957031 -25.65625 7.61328125 C-25.67494141 6.77579346 -25.69363281 5.93830566 -25.71289062 5.07543945 C-25.81767517 2.77996458 -25.81767517 2.77996458 -28 1 C-24.37 1 -20.74 1 -17 1 C-17.99 1.495 -17.99 1.495 -19 2 C-18.88995839 5.58395685 -18.75936703 9.16687917 -18.625 12.75 C-18.5940625 13.76578125 -18.563125 14.7815625 -18.53125 15.828125 C-18.49257813 16.8078125 -18.45390625 17.7875 -18.4140625 18.796875 C-18.3826416 19.69760742 -18.3512207 20.59833984 -18.31884766 21.52636719 C-17.98148209 24.14366268 -17.43140414 25.79099029 -16 28 C-13.28488952 29.68304356 -13.28488952 29.68304356 -10 30 C-6.1848027 28.05640892 -4.37245106 27.11735318 -3 23 C-2.7515582 20.02509771 -2.76887261 17.04673111 -2.75 14.0625 C-2.729375 13.25103516 -2.70875 12.43957031 -2.6875 11.60351562 C-2.63689296 6.78883466 -2.63689296 6.78883466 -4.515625 2.43359375 C-5.00546875 1.96050781 -5.4953125 1.48742187 -6 1 C-3.125 0.375 -3.125 0.375 0 0 Z " fill="#F6F6F6" transform="translate(316,310)"/>
<path d="M0 0 C6.54204149 -0.43980111 12.12456948 1.1739005 18.375 3 C19.46482178 3.31179199 20.55464355 3.62358398 21.67749023 3.94482422 C32.58760902 7.10089587 43.39334804 10.57392287 54.19140625 14.09082031 C58.30613366 15.42281309 62.43267488 16.71571073 66.5625 18 C67.82191406 18.391875 69.08132812 18.78375 70.37890625 19.1875 C71.24386719 19.455625 72.10882813 19.72375 73 20 C73 20.33 73 20.66 73 21 C66.9944465 20.44134386 61.59664271 18.66630975 55.890625 16.7421875 C52.96138464 15.71163782 52.96138464 15.71163782 50 17 C50.99 17.99 51.98 18.98 53 20 C47.14205304 19.31313855 41.83665727 17.34065105 36.3125 15.375 C34.80067139 14.84084473 34.80067139 14.84084473 33.25830078 14.29589844 C31.18411765 13.56091828 29.11087531 12.82327783 27.03857422 12.08300781 C24.17647579 11.06289945 21.30952046 10.0577269 18.44140625 9.0546875 C16.75225459 8.4541073 15.063434 7.85259483 13.375 7.25 C12.60067627 6.98106934 11.82635254 6.71213867 11.02856445 6.43505859 C6.69982219 4.86666673 3.46296629 3.14815117 0 0 Z " fill="#7E2CB4" transform="translate(153,252)"/>
<path d="M0 0 C-1 2 -1 2 -2.9621582 2.72192383 C-3.79577881 2.94388428 -4.62939941 3.16584473 -5.48828125 3.39453125 C-10.55650132 4.83039207 -15.32992232 6.66447121 -20.1875 8.6875 C-27.91445847 11.83375746 -35.69736742 14.77924333 -43.5625 17.5625 C-44.55596436 17.92110107 -45.54942871 18.27970215 -46.57299805 18.64916992 C-47.49894775 18.97248291 -48.42489746 19.2957959 -49.37890625 19.62890625 C-50.1994751 19.91838135 -51.02004395 20.20785645 -51.86547852 20.50610352 C-54 21 -54 21 -57 20 C-56.28972656 19.65066406 -55.57945312 19.30132812 -54.84765625 18.94140625 C-53.46900391 18.25884766 -53.46900391 18.25884766 -52.0625 17.5625 C-51.14597656 17.11003906 -50.22945313 16.65757812 -49.28515625 16.19140625 C-47.09471096 15.19474606 -47.09471096 15.19474606 -46 14 C-42.5 13.5 -42.5 13.5 -39 13 C-38.67 12.67 -38.34 12.34 -38 12 C-40.64 12 -43.28 12 -46 12 C-42.86558488 9.91038992 -40.26801149 9.0181393 -36.6796875 7.90625 C-35.4215625 7.51566406 -34.1634375 7.12507813 -32.8671875 6.72265625 C-31.88250488 6.42125732 -31.88250488 6.42125732 -30.87792969 6.11376953 C-28.90097365 5.50795926 -26.92694111 4.89329688 -24.953125 4.27734375 C-5.4654551 -1.76305003 -5.4654551 -1.76305003 0 0 Z " fill="#7F29B4" transform="translate(349,252)"/>
<path d="M0 0 C-0.48739855 6.45803076 -0.48739855 6.45803076 -2.5 8.5859375 C-6.07736391 10.60938396 -9.76953531 11.37731629 -13.75 12.3125 C-27.20255719 15.6916634 -39.33326929 20.25231864 -51.41845703 27.10449219 C-54.96607442 29.08816114 -56.84560774 30 -61 30 C-56.87931822 24.39049379 -51.90869982 21.50381122 -46 18 C-45.12601562 17.4740625 -44.25203125 16.948125 -43.3515625 16.40625 C-38.82931287 13.77192982 -38.82931287 13.77192982 -37 13 C-36.34 13.33 -35.68 13.66 -35 14 C-35.99 14.33 -36.98 14.66 -38 15 C-38 15.66 -38 16.32 -38 17 C-36.68 17 -35.36 17 -34 17 C-34 16.34 -34 15.68 -34 15 C-33.113125 14.7525 -32.22625 14.505 -31.3125 14.25 C-28.85059933 13.55727896 -26.42256966 12.81027289 -23.9921875 12.01171875 C-17.29118833 9.83349798 -11.04984393 8.31827738 -4 8 C-3.34 5.69 -2.68 3.38 -2 1 C-3.32 0.67 -4.64 0.34 -6 0 C-3 -1 -3 -1 0 0 Z " fill="#7625A9" transform="translate(316,191)"/>
<path d="M0 0 C-0.33 0.99 -0.66 1.98 -1 3 C-4.0625 4.1875 -4.0625 4.1875 -7 5 C-7.33 7.64 -7.66 10.28 -8 13 C-8.66 13 -9.32 13 -10 13 C-10.04125 13.5775 -10.0825 14.155 -10.125 14.75 C-11.1692037 17.43509524 -12.5367558 18.74178914 -14.9921875 20.23046875 C-19.23331717 21.85596008 -23.5735315 21.79348546 -28 21 C-30.56756672 19.58121074 -31.97861665 18.1852793 -34 16 C-33.34 14.68 -32.68 13.36 -32 12 C-31.34 12 -30.68 12 -30 12 C-29.58105469 12.65484375 -29.16210938 13.3096875 -28.73046875 13.984375 C-27.14209736 16.28147438 -27.14209736 16.28147438 -24.30078125 16.390625 C-23.31464844 16.34421875 -22.32851562 16.2978125 -21.3125 16.25 C-20.31863281 16.21390625 -19.32476562 16.1778125 -18.30078125 16.140625 C-17.54152344 16.09421875 -16.78226563 16.0478125 -16 16 C-16 15.34 -16 14.68 -16 14 C-15.50886719 13.56042969 -15.01773437 13.12085938 -14.51171875 12.66796875 C-12.51366482 10.46339762 -12.68541486 9.23545816 -12.8125 6.3125 C-12.83957031 5.50425781 -12.86664063 4.69601562 -12.89453125 3.86328125 C-12.94673828 2.94095703 -12.94673828 2.94095703 -13 2 C-8.49646738 0.24252386 -4.82360189 -0.19294408 0 0 Z " fill="#9B1BE1" transform="translate(272,276)"/>
<path d="M0 0 C4.66030154 1.3810924 8.70707898 3.35555385 12.875 5.8125 C13.48706299 6.16997314 14.09912598 6.52744629 14.72973633 6.89575195 C16.48882671 7.92652536 18.24450422 8.96311652 20 10 C20.85207031 10.48210937 21.70414063 10.96421875 22.58203125 11.4609375 C26.58059823 13.79034386 29.00684931 15.63998287 31 20 C26.49992311 19.48176957 23.64717319 18.40911796 19.875 15.9375 C9.72887724 9.76824948 -1.71817198 5.61973961 -13 2 C-9.59598052 0.86267574 -7.22543336 1.16010043 -3.75 1.9375 C-2.41195312 2.22947266 -2.41195312 2.22947266 -1.046875 2.52734375 C-0.37140625 2.68332031 0.3040625 2.83929688 1 3 C0.67 2.01 0.34 1.02 0 0 Z " fill="#6D249B" transform="translate(217,202)"/>
<path d="M0 0 C4.96229205 0.68768772 9.5568005 1.98544602 14.3125 3.5 C15.40401367 3.83837891 15.40401367 3.83837891 16.51757812 4.18359375 C21.86946216 5.86946216 21.86946216 5.86946216 23 7 C23.08871273 10.02977804 23.1151935 13.03667022 23.09765625 16.06640625 C23.0962413 16.97502914 23.09482635 17.88365204 23.09336853 18.81980896 C23.08775193 21.73407221 23.07519665 24.64825981 23.0625 27.5625 C23.05748714 29.53320202 23.05292386 31.50390524 23.04882812 33.47460938 C23.03777711 38.31643559 23.02050138 43.15820495 23 48 C19.09627906 47.37455499 15.40198414 46.6114275 11.625 45.4375 C10.75101563 45.16808594 9.87703125 44.89867187 8.9765625 44.62109375 C8.32429687 44.41613281 7.67203125 44.21117187 7 44 C7 43.67 7 43.34 7 43 C9.64 42.67 12.28 42.34 15 42 C15 42.33 15 42.66 15 43 C16.98 43.33 18.96 43.66 21 44 C20.67 32.78 20.34 21.56 20 10 C17.69 9.01 15.38 8.02 13 7 C13 6.34 13 5.68 13 5 C12.154375 4.896875 11.30875 4.79375 10.4375 4.6875 C6.58557299 3.9171146 3.55924969 2.63725486 0 1 C0 0.67 0 0.34 0 0 Z " fill="#825BD4" transform="translate(224,224)"/>
<path d="M0 0 C9.17434011 1.68689479 16.85049754 4.46270944 25 9 C25 9.66 25 10.32 25 11 C16.02901132 12.44176604 9.37754276 11.52738643 1 8 C0 7 0 7 -0.0625 3.4375 C-0.041875 2.303125 -0.02125 1.16875 0 0 Z " fill="#C6D9F1" transform="translate(167,159)"/>
<path d="M0 0 C-1.32 0.33 -2.64 0.66 -4 1 C-4 2.32 -4 3.64 -4 5 C-6.3260857 5.38063221 -8.66055264 5.71269945 -11 6 C-11.33 5.67 -11.66 5.34 -12 5 C-13.66617115 4.95936168 -15.33388095 4.957279 -17 5 C-17 5.66 -17 6.32 -17 7 C-18.65 7.33 -20.3 7.66 -22 8 C-22.33 17.9 -22.66 27.8 -23 38 C-22.34 38 -21.68 38 -21 38 C-21 39.65 -21 41.3 -21 43 C-18.69 43.66 -16.38 44.32 -14 45 C-17 47 -17 47 -25 48 C-25 34.47 -25 20.94 -25 7 C-20.39253128 5.02537055 -16.11637743 3.28922973 -11.375 1.8125 C-10.28960937 1.46832031 -9.20421875 1.12414062 -8.0859375 0.76953125 C-5.23494878 0.05858849 -2.91836703 -0.15730975 0 0 Z " fill="#7752C7" transform="translate(277,224)"/>
<path d="M0 0 C-0.85512418 3.65866888 -1.35165375 5.53405345 -4.45849609 7.7668457 C-5.97564209 8.4642688 -5.97564209 8.4642688 -7.5234375 9.17578125 C-8.626875 9.69333984 -9.7303125 10.21089844 -10.8671875 10.74414062 C-12.60355469 11.52047852 -12.60355469 11.52047852 -14.375 12.3125 C-15.52484375 12.84939453 -16.6746875 13.38628906 -17.859375 13.93945312 C-26.99570408 18.1615446 -26.99570408 18.1615446 -31 19 C-31.33 18.34 -31.66 17.68 -32 17 C-26.40530177 13.21979849 -20.72817587 9.57455936 -15 6 C-13.37964844 4.98873047 -13.37964844 4.98873047 -11.7265625 3.95703125 C-10.66179687 3.31121094 -9.59703125 2.66539062 -8.5 2 C-7.03046875 1.1028125 -7.03046875 1.1028125 -5.53125 0.1875 C-3 -1 -3 -1 0 0 Z " fill="#9249C5" transform="translate(295,187)"/>
<path d="M0 0 C2.01953125 1.65625 2.01953125 1.65625 3.8125 3.5 C4.41707031 4.1084375 5.02164063 4.716875 5.64453125 5.34375 C7 7 7 7 7 9 C6.34 9 5.68 9 5 9 C5 8.34 5 7.68 5 7 C4.030625 6.731875 3.06125 6.46375 2.0625 6.1875 C1.051875 5.795625 0.04125 5.40375 -1 5 C-1.495 3.515 -1.495 3.515 -2 2 C-9.24295698 3.55679411 -16.10696526 5.29202207 -23 8 C-24.65740715 8.37668344 -26.32345271 8.72057545 -28 9 C-28.61875 9.185625 -29.2375 9.37125 -29.875 9.5625 C-32.92306727 10.19004326 -35.89905651 10.05963353 -39 10 C-36.88863565 7.88863565 -35.88664655 7.48537119 -33.10546875 6.6328125 C-32.32059082 6.38853516 -31.53571289 6.14425781 -30.72705078 5.89257812 C-29.46997314 5.51262695 -29.46997314 5.51262695 -28.1875 5.125 C-26.45957752 4.59654344 -24.73171316 4.0678968 -23.00390625 3.5390625 C-22.15328613 3.2802832 -21.30266602 3.02150391 -20.42626953 2.75488281 C-18.27940395 2.08693067 -16.15238127 1.38227132 -14.02734375 0.6484375 C-12.34318359 0.07996094 -12.34318359 0.07996094 -10.625 -0.5 C-9.15933594 -1.01046875 -9.15933594 -1.01046875 -7.6640625 -1.53125 C-4.35880571 -2.11282011 -2.92006092 -1.60579455 0 0 Z " fill="#8C5DEA" transform="translate(316,214)"/>
<path d="M0 0 C1.13824219 0.36802734 2.27648437 0.73605469 3.44921875 1.11523438 C6.21731222 2.01079403 8.98418888 2.9099215 11.75 3.8125 C8.03037312 5.17270345 5.66033457 4.42442039 1.953125 3.23046875 C0.8290625 2.87533203 -0.295 2.52019531 -1.453125 2.15429688 C-2.62359375 1.77337891 -3.7940625 1.39246094 -5 1 C-7.30668623 0.26242678 -9.61396536 -0.47329514 -11.921875 -1.20703125 C-13.00919922 -1.55330566 -14.09652344 -1.89958008 -15.21679688 -2.25634766 C-18.86971349 -3.37774366 -22.52914888 -4.32143983 -26.25 -5.1875 C-26.25 -4.5275 -26.25 -3.8675 -26.25 -3.1875 C-28.625 -0.5625 -28.625 -0.5625 -31.25 1.8125 C-31.91 1.8125 -32.57 1.8125 -33.25 1.8125 C-33.58 2.8025 -33.91 3.7925 -34.25 4.8125 C-34.91 4.8125 -35.57 4.8125 -36.25 4.8125 C-36.518125 5.451875 -36.78625 6.09125 -37.0625 6.75 C-38.25 8.8125 -38.25 8.8125 -41.25 9.8125 C-41.58 10.8025 -41.91 11.7925 -42.25 12.8125 C-42.91 12.8125 -43.57 12.8125 -44.25 12.8125 C-44.518125 13.451875 -44.78625 14.09125 -45.0625 14.75 C-46.25 16.8125 -46.25 16.8125 -49.25 17.8125 C-49.25 18.4725 -49.25 19.1325 -49.25 19.8125 C-49.91 19.8125 -50.57 19.8125 -51.25 19.8125 C-51.25 20.4725 -51.25 21.1325 -51.25 21.8125 C-51.91 21.4825 -52.57 21.1525 -53.25 20.8125 C-47.93358303 14.53542979 -42.26563874 8.67626031 -36.4375 2.875 C-35.57962891 2.01326172 -34.72175781 1.15152344 -33.83789062 0.26367188 C-33.01869141 -0.55423828 -32.19949219 -1.37214844 -31.35546875 -2.21484375 C-30.61449951 -2.95468506 -29.87353027 -3.69452637 -29.11010742 -4.45678711 C-22.54221594 -10.56779679 -7.57052995 -2.47137135 0 0 Z " fill="#6747AC" transform="translate(212.25,219.1875)"/>
<path d="M0 0 C-0.33 1.65 -0.66 3.3 -1 5 C-1.57105469 5.17015625 -2.14210938 5.3403125 -2.73046875 5.515625 C-3.54128906 5.75796875 -4.35210937 6.0003125 -5.1875 6.25 C-6.54681641 6.65605469 -6.54681641 6.65605469 -7.93359375 7.0703125 C-10.07532603 7.71965299 -12.21308355 8.38218502 -14.34765625 9.0546875 C-15.47042969 9.40789062 -16.59320313 9.76109375 -17.75 10.125 C-18.79671875 10.45757812 -19.8434375 10.79015625 -20.921875 11.1328125 C-23.939645 11.98299644 -26.90029461 12.5452528 -30 13 C-29.47265625 11.19140625 -29.47265625 11.19140625 -28 9 C-25.45664105 7.79741756 -23.08465301 6.83379197 -20.4375 5.9375 C-19.71602783 5.68145996 -18.99455566 5.42541992 -18.2512207 5.16162109 C-16.17187259 4.42762359 -14.08668941 3.71279556 -12 3 C-11.02546875 2.65324219 -10.0509375 2.30648437 -9.046875 1.94921875 C-5.92185686 0.85753195 -3.33318453 0 0 0 Z " fill="#A324E7" transform="translate(323,177)"/>
<path d="M0 0 C0.66 0.33 1.32 0.66 2 1 C2.33 1.99 2.66 2.98 3 4 C5.97 4.495 5.97 4.495 9 5 C7.625 6.5 7.625 6.5 6 8 C5.34 8 4.68 8 4 8 C4.66 9.98 5.32 11.96 6 14 C4.906875 13.79375 3.81375 13.5875 2.6875 13.375 C-1.0838401 12.59653475 -1.0838401 12.59653475 -4 15 C-5 12 -5 12 -4.0625 9.8125 C-3.5365625 8.9153125 -3.5365625 8.9153125 -3 8 C-5.475 7.01 -5.475 7.01 -8 6 C-7.34 5.34 -6.68 4.68 -6 4 C-4.68 4 -3.36 4 -2 4 C-1.34 2.68 -0.68 1.36 0 0 Z " fill="#F8F8F8" transform="translate(250,136)"/>
<path d="M0 0 C-0.33896794 2.50836279 -0.66542965 4.48830417 -2.0625 6.625 C-5.0223582 8.72554453 -8.17770612 8.57280085 -11.6875 8.6875 C-12.38939453 8.72166016 -13.09128906 8.75582031 -13.81445312 8.79101562 C-15.54241387 8.87329947 -17.27118072 8.9383324 -19 9 C-19 8.01 -19 7.02 -19 6 C-16.58660204 4.99141578 -14.16981325 3.99297327 -11.75 3 C-11.06808594 2.71382812 -10.38617188 2.42765625 -9.68359375 2.1328125 C-6.18584265 0.70654506 -3.83099811 0 0 0 Z " fill="#991DDB" transform="translate(314,192)"/>
<path d="M0 0 C-1.625 5.75 -1.625 5.75 -5 8 C-5.45375 6.865625 -5.9075 5.73125 -6.375 4.5625 C-7.57095806 0.95278308 -7.57095806 0.95278308 -10 0 C-11.99960012 -0.039992 -14.00047242 -0.04346799 -16 0 C-16.66 1.98 -17.32 3.96 -18 6 C-18.66 5.34 -19.32 4.68 -20 4 C-20 3.34 -20 2.68 -20 2 C-20.99 3.32 -21.98 4.64 -23 6 C-22.875 3.1875 -22.875 3.1875 -22 0 C-15.053299 -5.21002575 -7.21122178 -3.68232602 0 0 Z " fill="#F3F3F3" transform="translate(344,313)"/>
<path d="M0 0 C0.66 0.66 1.32 1.32 2 2 C1.67 2.33 1.34 2.66 1 3 C0.87922387 4.49025773 0.82045345 5.98565452 0.7890625 7.48046875 C0.76070313 8.39763672 0.73234375 9.31480469 0.703125 10.25976562 C0.65156767 12.1918766 0.60714609 14.12419288 0.5703125 16.05664062 C0.39185856 21.38423425 0.07918793 25.44398332 -3 30 C-5.6875 31.375 -5.6875 31.375 -8 32 C-8.66 31.34 -9.32 30.68 -10 30 C-8.5459375 29.1028125 -8.5459375 29.1028125 -7.0625 28.1875 C-3.76947958 26.28872491 -3.76947958 26.28872491 -3 23 C-2.7515582 20.02509771 -2.76887261 17.04673111 -2.75 14.0625 C-2.729375 13.25103516 -2.70875 12.43957031 -2.6875 11.60351562 C-2.63689296 6.78883466 -2.63689296 6.78883466 -4.515625 2.43359375 C-5.00546875 1.96050781 -5.4953125 1.48742187 -6 1 C-3.125 0.375 -3.125 0.375 0 0 Z " fill="#E4E4E4" transform="translate(316,310)"/>
<path d="M0 0 C5.49766477 0.66043375 10.35289714 2.4378322 15.5 4.375 C16.32886719 4.67921875 17.15773437 4.9834375 18.01171875 5.296875 C22.48675642 6.96167439 26.77155744 8.76222034 31 11 C28.43917856 11.96178317 27.29957129 12.1111968 24.6953125 11.14453125 C23.84710938 10.70496094 22.99890625 10.26539063 22.125 9.8125 C15.60500815 6.65396538 8.99030746 4.82666429 2 3 C3.25204958 7.01690453 3.25204958 7.01690453 6.625 9.3125 C7.40875 9.539375 8.1925 9.76625 9 10 C9 10.33 9 10.66 9 11 C5.625 10.6875 5.625 10.6875 2 10 C-0.4294516 6.3558226 -0.16179575 4.28758728 0 0 Z " fill="#8439B4" transform="translate(176,174)"/>
<path d="M0 0 C1 3 1 3 -0.1875 5.5625 C-2.08926894 8.12005134 -2.92829271 9.21013241 -6 10 C-9.25 9.125 -9.25 9.125 -12 8 C-11.34 7.67 -10.68 7.34 -10 7 C-10 6.34 -10 5.68 -10 5 C-10.66 4.67 -11.32 4.34 -12 4 C-7.87571444 0.61219401 -5.3248712 0 0 0 Z " fill="#C6DBF3" transform="translate(334,160)"/>
<path d="M0 0 C-2.68972064 2.68972064 -5.77696968 3.46256703 -9.30859375 4.63671875 C-10.03111832 4.88041702 -10.75364288 5.1241153 -11.49806213 5.37519836 C-13.02608469 5.88836727 -14.55516502 6.39839564 -16.08520508 6.90551758 C-18.42848786 7.68450406 -20.76599061 8.47931805 -23.10351562 9.27539062 C-24.58821675 9.77180618 -26.07323288 10.26728077 -27.55859375 10.76171875 C-28.2586705 11.0012175 -28.95874725 11.24071625 -29.68003845 11.48747253 C-34.65620394 13.11459869 -34.65620394 13.11459869 -38 12 C-36.02 11.34 -34.04 10.68 -32 10 C-32 9.34 -32 8.68 -32 8 C-31.05898438 7.82984375 -30.11796875 7.6596875 -29.1484375 7.484375 C-21.43196025 6.2750334 -21.43196025 6.2750334 -14.5625 2.875 C-10.20596514 -0.31270843 -5.24781235 -0.15902462 0 0 Z " fill="#825BD4" transform="translate(316,251)"/>
<path d="M0 0 C-1 2 -1 2 -2.828125 2.67578125 C-4.02695312 2.99095703 -4.02695312 2.99095703 -5.25 3.3125 C-11.66687951 5.11666612 -17.80868105 7.5448218 -24 10 C-23.67 9.01 -23.34 8.02 -23 7 C-22.34 6.67 -21.68 6.34 -21 6 C-22.98 6.33 -24.96 6.66 -27 7 C-26 5 -26 5 -23.59375 4 C-5.61503532 -1.81130172 -5.61503532 -1.81130172 0 0 Z " fill="#673390" transform="translate(349,252)"/>
<path d="M0 0 C0.515625 0.515625 1.03125 1.03125 1.5625 1.5625 C4.98940418 3.58349477 7.13808868 2.65456124 11 2 C12.155 2.20625 13.31 2.4125 14.5 2.625 C19.00485277 3.1076628 21.017733 2.03176888 25 0 C25 0.99 25 1.98 25 3 C19.31987041 6.9513945 14.89060112 7.9422074 8 7 C4.43830904 5.72796751 2.63843195 5.01568719 0.625 1.8125 C0.41875 1.214375 0.2125 0.61625 0 0 Z " fill="#E8E9E9" transform="translate(160,336)"/>
<path d="M0 0 C0.66 0 1.32 0 2 0 C2.66 2.31 3.32 4.62 4 7 C9.9688623 8.24409811 9.9688623 8.24409811 15.5625 6.5625 C16.036875 6.046875 16.51125 5.53125 17 5 C17 5.66 17 6.32 17 7 C17.66 7.33 18.32 7.66 19 8 C14.43297859 10.67337839 11.27963786 11.47139624 6 11 C2.43994586 10.04152389 0.07769135 9.05179424 -3 7 C-1.125 2.25 -1.125 2.25 0 0 Z " fill="#F1F1F1" transform="translate(323,332)"/>
<path d="M0 0 C7.12384541 -0.66268329 13.30879185 1.74611936 20 4 C19.01 4.66 18.02 5.32 17 6 C17.84884766 6.29003906 17.84884766 6.29003906 18.71484375 6.5859375 C19.44832031 6.84632813 20.18179688 7.10671875 20.9375 7.375 C22.03384766 7.75785156 22.03384766 7.75785156 23.15234375 8.1484375 C25 9 25 9 26 11 C7.22739472 5.89152555 7.22739472 5.89152555 0 0 Z " fill="#68359A" transform="translate(153,252)"/>
<path d="M0 0 C0 0.66 0 1.32 0 2 C1.98 1.67 3.96 1.34 6 1 C2.51527237 3.75983441 -1.22738767 6.01982045 -5.0625 8.25 C-5.99932617 8.81460938 -5.99932617 8.81460938 -6.95507812 9.390625 C-8.59240181 10.34121634 -10.29395497 11.17910835 -12 12 C-12.99 11.67 -13.98 11.34 -15 11 C-11.98347183 6.54078445 -5.81108308 0 0 0 Z " fill="#682D90" transform="translate(270,210)"/>
<path d="M0 0 C2.97851562 0.43945312 2.97851562 0.43945312 5.95703125 0.87890625 C8.2025342 1.13904799 8.2025342 1.13904799 11 0 C13.6640625 1.328125 13.6640625 1.328125 16.625 3.25 C18.09839844 4.18585938 18.09839844 4.18585938 19.6015625 5.140625 C22 7 22 7 23 10 C22.01 10.495 22.01 10.495 21 11 C18.3318731 9.80067548 15.77191417 8.54759686 13.1875 7.1875 C6.71973617 3.821187 6.71973617 3.821187 0 1 C0 0.67 0 0.34 0 0 Z " fill="#6A3D8F" transform="translate(211,193)"/>
<path d="M0 0 C1.67542976 0.28604898 3.34385343 0.61781233 5 1 C3.68 1.33 2.36 1.66 1 2 C1.65659236 5.05891128 1.65659236 5.05891128 3.78515625 6.0625 C4.53667969 6.371875 5.28820312 6.68125 6.0625 7 C6.866875 7.33515625 7.67125 7.6703125 8.5 8.015625 C11.98561705 9.38808672 15.47930079 10.71974574 19 12 C19 12.66 19 13.32 19 14 C5.8972973 12.36216216 5.8972973 12.36216216 1.5625 9.25 C-0.35873168 6.48342639 -0.77743817 4.33842739 -1 1 C-0.67 0.67 -0.34 0.34 0 0 Z " fill="#8924C6" transform="translate(185,189)"/>
<path d="M0 0 C6.38037431 -0.56714438 12.38591812 0.85300601 18 4 C18.8203125 6.140625 18.8203125 6.140625 19 8 C7.47835991 6.07289294 7.47835991 6.07289294 2 4 C2 3.34 2 2.68 2 2 C1.34 2 0.68 2 0 2 C0 1.34 0 0.68 0 0 Z " fill="#A019E7" transform="translate(181,179)"/>
<path d="M0 0 C5.76774721 4.89004655 11.39476999 9.92484204 17 15 C16.67 15.66 16.34 16.32 16 17 C15.34 16.67 14.68 16.34 14 16 C14 15.34 14 14.68 14 14 C13.01 13.67 12.02 13.34 11 13 C10.01 14.485 10.01 14.485 9 16 C8.01 15.34 7.02 14.68 6 14 C6.33 13.34 6.66 12.68 7 12 C6.67 11.67 6.34 11.34 6 11 C6 10.34 6 9.68 6 9 C5.34 9 4.68 9 4 9 C3.67 7.68 3.34 6.36 3 5 C2.01 5.33 1.02 5.66 0 6 C0 4.02 0 2.04 0 0 Z M5 15 C5.66 15 6.32 15 7 15 C6.67 15.66 6.34 16.32 6 17 C5.67 16.34 5.34 15.68 5 15 Z " fill="#7E53D5" transform="translate(323,223)"/>
<path d="M0 0 C1.1446875 1.175625 1.1446875 1.175625 2.3125 2.375 C6.06348377 6.03875159 8.13780375 7.30342744 13.3125 7.375 C18.53149939 7.28513643 21.1669201 6.53046833 25 3 C25.33 2.01 25.66 1.02 26 0 C26.66 0 27.32 0 28 0 C27.52695318 4.25742137 25.1136178 6.25705098 22 9 C16.81563992 10.72812003 11.17305129 10.94480491 6.125 8.75 C3.90517415 6.92190812 1.85730233 5.20124721 0 3 C0 2.01 0 1.02 0 0 Z " fill="#7328A3" transform="translate(236,289)"/>
<path d="M0 0 C0 0.66 0 1.32 0 2 C-3.12394391 2.83732743 -6.24931974 3.66917982 -9.375 4.5 C-10.26445312 4.73847656 -11.15390625 4.97695313 -12.0703125 5.22265625 C-12.92109375 5.44824219 -13.771875 5.67382812 -14.6484375 5.90625 C-15.43395996 6.11572266 -16.21948242 6.32519531 -17.02880859 6.54101562 C-19 7 -19 7 -21 7 C-20.85691406 7.92232422 -20.85691406 7.92232422 -20.7109375 8.86328125 C-20.60007812 9.67152344 -20.48921875 10.47976563 -20.375 11.3125 C-20.25898438 12.11300781 -20.14296875 12.91351563 -20.0234375 13.73828125 C-20 16 -20 16 -22 19 C-22.66 18.67 -23.32 18.34 -24 18 C-23.31640625 12.140625 -23.31640625 12.140625 -23 10 C-22.96132813 8.96166016 -22.96132813 8.96166016 -22.921875 7.90234375 C-22 6 -22 6 -18.76171875 4.55078125 C-17.40889661 4.12112387 -16.05040745 3.70900535 -14.6875 3.3125 C-14.01009766 3.10044922 -13.33269531 2.88839844 -12.63476562 2.66992188 C-4.01858241 0 -4.01858241 0 0 0 Z " fill="#7C2BB3" transform="translate(280,271)"/>
<path d="M0 0 C5.922178 0.63480605 11.28827744 2.21092972 16.9375 4.0625 C17.81212891 4.34416016 18.68675781 4.62582031 19.58789062 4.91601562 C21.72694327 5.60565555 23.86418579 6.30040829 26 7 C26 7.33 26 7.66 26 8 C19.9944465 7.44134386 14.59664271 5.66630975 8.890625 3.7421875 C5.96138464 2.71163782 5.96138464 2.71163782 3 4 C3.99 4.99 4.98 5.98 6 7 C0.7415998 6.32584613 -4.02638346 4.75734451 -9 3 C-5.90279155 2.12159004 -4.09354597 2.00564594 -1 3 C-0.67 2.01 -0.34 1.02 0 0 Z " fill="#7A34AC" transform="translate(200,265)"/>
<path d="M0 0 C0.71285156 0.20496094 1.42570313 0.40992188 2.16015625 0.62109375 C7.43976749 2.10620647 12.54711116 3.39412346 18 4 C17.67 4.66 17.34 5.32 17 6 C18.6396875 6.2165625 18.6396875 6.2165625 20.3125 6.4375 C24 7 24 7 27 8 C27.33 8.99 27.66 9.98 28 11 C21.40739283 9.95355442 15.23842492 8.22074025 8.9375 6.0625 C8.1751001 5.80968262 7.4127002 5.55686523 6.62719727 5.29638672 C4.7162442 4.62365874 2.85224443 3.82066749 1 3 C0.67 2.01 0.34 1.02 0 0 Z " fill="#7851C9" transform="translate(158,241)"/>
<path d="M0 0 C8.8293034 1.76586068 17.38564937 4.40877168 26 7 C25.67 7.66 25.34 8.32 25 9 C24.01 9 23.02 9 22 9 C22 8.34 22 7.68 22 7 C20.4221875 7.0309375 20.4221875 7.0309375 18.8125 7.0625 C15.67295096 7.01103198 13.03116604 6.73482813 10 6 C10 5.34 10 4.68 10 4 C9.484375 4.226875 8.96875 4.45375 8.4375 4.6875 C4.71192968 5.16513722 2.35483696 3.61290239 -1 2 C-0.67 1.34 -0.34 0.68 0 0 Z " fill="#8655E5" transform="translate(191,215)"/>
<path d="M0 0 C0.60328125 0.19464844 1.2065625 0.38929688 1.828125 0.58984375 C-1.43451639 2.29354386 -4.70814973 3.97493437 -7.984375 5.65234375 C-8.91314453 6.13767578 -9.84191406 6.62300781 -10.79882812 7.12304688 C-11.69150391 7.57744141 -12.58417969 8.03183594 -13.50390625 8.5 C-14.32608643 8.92418213 -15.1482666 9.34836426 -15.99536133 9.78540039 C-18.171875 10.58984375 -18.171875 10.58984375 -21.171875 9.58984375 C-18.33008312 7.2647413 -15.44360901 5.01283776 -12.484375 2.83984375 C-11.61232422 2.19789063 -11.61232422 2.19789063 -10.72265625 1.54296875 C-9.171875 0.58984375 -9.171875 0.58984375 -7.171875 0.58984375 C-7.171875 1.24984375 -7.171875 1.90984375 -7.171875 2.58984375 C-6.429375 2.07421875 -5.686875 1.55859375 -4.921875 1.02734375 C-2.171875 -0.41015625 -2.171875 -0.41015625 0 0 Z " fill="#7852A1" transform="translate(284.171875,195.41015625)"/>
<path d="M0 0 C1.32 0 2.64 0 4 0 C4 0.66 4 1.32 4 2 C5.65 2 7.3 2 9 2 C9 2.99 9 3.98 9 5 C9.94875 5.0825 10.8975 5.165 11.875 5.25 C12.90625 5.4975 13.9375 5.745 15 6 C16.1953125 8.046875 16.1953125 8.046875 17 10 C13.98686915 9.03661803 10.98998456 8.03298991 8 7 C7.30003906 6.76023438 6.60007813 6.52046875 5.87890625 6.2734375 C4 5.5625 4 5.5625 1 4 C0.0625 1.8125 0.0625 1.8125 0 0 Z " fill="#A214EC" transform="translate(186,191)"/>
<path d="M0 0 C-3 2 -3 2 -6.3125 2.375 C-10.47921696 3.08122321 -12.57021761 4.61406442 -16 7 C-18.875 7.75 -18.875 7.75 -21 8 C-20.67 6.68 -20.34 5.36 -20 4 C-19.01 4 -18.02 4 -17 4 C-16.67 3.01 -16.34 2.02 -16 1 C-5.62642369 -1.48063781 -5.62642369 -1.48063781 0 0 Z " fill="#8D25C9" transform="translate(313,264)"/>
<path d="M0 0 C2.14729141 0.28073073 4.29283193 0.57488499 6.4375 0.875 C7.63246094 1.03742188 8.82742187 1.19984375 10.05859375 1.3671875 C11.51458984 1.68042969 11.51458984 1.68042969 13 2 C13.33 2.66 13.66 3.32 14 4 C16.3283369 4.93424518 18.62309003 5.77409581 21 6.5625 C27.88781575 8.88781575 27.88781575 8.88781575 29 10 C29.04092937 12.33297433 29.04241723 14.66705225 29 17 C27.5393715 14.35261084 27 13.10551666 27 10 C25.7934375 9.8453125 25.7934375 9.8453125 24.5625 9.6875 C15.96582353 8.02849226 8.01587155 4.43149831 0 1 C0 0.67 0 0.34 0 0 Z " fill="#7C2DB2" transform="translate(207,272)"/>
<path d="M0 0 C0 0.66 0 1.32 0 2 C-2.64 2.33 -5.28 2.66 -8 3 C-8 3.66 -8 4.32 -8 5 C-10.76941606 5.83830973 -13.54035069 6.67082034 -16.3125 7.5 C-17.49102539 7.85771484 -17.49102539 7.85771484 -18.69335938 8.22265625 C-19.45068359 8.44824219 -20.20800781 8.67382812 -20.98828125 8.90625 C-21.68477783 9.11572266 -22.38127441 9.32519531 -23.09887695 9.54101562 C-25 10 -25 10 -28 10 C-28 9.34 -28 8.68 -28 8 C-27.34 8 -26.68 8 -26 8 C-25.67 7.34 -25.34 6.68 -25 6 C-23.1015625 5.5078125 -23.1015625 5.5078125 -20.625 5.125 C-15.63170461 4.2353899 -11.14720579 2.68270319 -6.4453125 0.8046875 C-4 0 -4 0 0 0 Z " fill="#8233B1" transform="translate(321,182)"/>
<path d="M0 0 C0.33 0 0.66 0 1 0 C1.5056636 4.93022009 0.29031643 8.07473975 -1.77734375 12.41015625 C-3.19999726 15.42363636 -4.47686452 18.48303555 -5.75 21.5625 C-6.17796875 22.59503906 -6.6059375 23.62757813 -7.046875 24.69140625 C-7.36140625 25.45324219 -7.6759375 26.21507812 -8 27 C-9.12451172 25.33886719 -9.12451172 25.33886719 -10 23 C-9.30908203 20.43457031 -9.30908203 20.43457031 -8.0078125 17.578125 C-7.55019531 16.55332031 -7.09257812 15.52851563 -6.62109375 14.47265625 C-6.12738281 13.40917969 -5.63367188 12.34570312 -5.125 11.25 C-4.63902344 10.17105469 -4.15304688 9.09210938 -3.65234375 7.98046875 C-2.44873443 5.31364811 -1.23094573 2.65428606 0 0 Z " fill="#E5E5E5" transform="translate(250,311)"/>
<path d="M0 0 C0.66 0 1.32 0 2 0 C4.125 4.625 4.125 4.625 3 8 C2.67 7.34 2.34 6.68 2 6 C-0.18539536 9.50560488 -2.00601033 13.04050966 -3.6875 16.8125 C-4.12449219 17.78832031 -4.56148437 18.76414062 -5.01171875 19.76953125 C-5.33785156 20.50558594 -5.66398438 21.24164063 -6 22 C-6.66 21.01 -7.32 20.02 -8 19 C-7.49267578 16.9152832 -7.49267578 16.9152832 -6.4453125 14.55078125 C-6.07792969 13.70322266 -5.71054688 12.85566406 -5.33203125 11.98242188 C-4.73455078 10.66081055 -4.73455078 10.66081055 -4.125 9.3125 C-3.73441406 8.41982422 -3.34382812 7.52714844 -2.94140625 6.60742188 C-1.97310613 4.39922527 -0.99232799 2.1974784 0 0 Z " fill="#E4E6E5" transform="translate(201,312)"/>
<path d="M0 0 C-3.92848343 1.45421941 -7.86113204 2.89633983 -11.7980957 4.32739258 C-13.13687268 4.81594639 -14.47445358 5.3077908 -15.81079102 5.80297852 C-17.73148794 6.51405718 -19.65617065 7.21320401 -21.58203125 7.91015625 C-23.31803589 8.54642944 -23.31803589 8.54642944 -25.08911133 9.19555664 C-28 10 -28 10 -31 9 C-29.93458984 8.47599609 -29.93458984 8.47599609 -28.84765625 7.94140625 C-27.92855469 7.48636719 -27.00945312 7.03132813 -26.0625 6.5625 C-24.68771484 5.88380859 -24.68771484 5.88380859 -23.28515625 5.19140625 C-21.09471096 4.19474606 -21.09471096 4.19474606 -20 3 C-17.71677411 2.46277038 -15.42301875 1.96994248 -13.125 1.5 C-2.21855146 -0.73951715 -2.21855146 -0.73951715 0 0 Z " fill="#7226A9" transform="translate(323,263)"/>
<path d="M0 0 C1.77922848 0.87904157 3.54813201 1.77899923 5.3125 2.6875 C6.29863281 3.18636719 7.28476563 3.68523437 8.30078125 4.19921875 C11.24721209 6.16492731 12.4341749 7.86300569 14 11 C7.69785303 10.66830805 3.14783064 7.32676012 -2 4 C0 3 0 3 2 3 C1.34 2.67 0.68 2.34 0 2 C0 1.34 0 0.68 0 0 Z " fill="#3A194A" transform="translate(234,211)"/>
<path d="M0 0 C0.99 0 1.98 0 3 0 C3.33 0.66 3.66 1.32 4 2 C4.33 1.34 4.66 0.68 5 0 C5.66 0 6.32 0 7 0 C7 2.64 7 5.28 7 8 C6.01 8 5.02 8 4 8 C3.67 7.34 3.34 6.68 3 6 C2.67 6.99 2.34 7.98 2 9 C1.01 8.67 0.02 8.34 -1 8 C-1.125 2.25 -1.125 2.25 0 0 Z " fill="#D4D6D5" transform="translate(236,353)"/>
<path d="M0 0 C0 2.64 0 5.28 0 8 C-2.33333333 8 -4.66666667 8 -7 8 C-7 5.36 -7 2.72 -7 0 C-2.25 -1.125 -2.25 -1.125 0 0 Z " fill="#D5D7D6" transform="translate(255,353)"/>
<path d="M0 0 C-0.33 1.65 -0.66 3.3 -1 5 C-5.26616316 6.13764351 -8.56486311 7 -13 7 C-12.7734375 5.109375 -12.7734375 5.109375 -12 3 C-10.0390625 1.953125 -10.0390625 1.953125 -7.625 1.25 C-6.83351563 1.00765625 -6.04203125 0.7653125 -5.2265625 0.515625 C-3 0 -3 0 0 0 Z " fill="#9D1DE1" transform="translate(323,177)"/>
<path d="M0 0 C1.65 0 3.3 0 5 0 C5 0.66 5 1.32 5 2 C7.31 2 9.62 2 12 2 C12 2.66 12 3.32 12 4 C13.32 4 14.64 4 16 4 C16 4.66 16 5.32 16 6 C18.31 6.33 20.62 6.66 23 7 C23 7.66 23 8.32 23 9 C17.74272175 8.33654156 13.07140932 6.74419696 8.125 4.9375 C7.34125 4.65583984 6.5575 4.37417969 5.75 4.08398438 C3.83169424 3.39386218 1.91561481 2.69755684 0 2 C0 1.34 0 0.68 0 0 Z " fill="#865EDB" transform="translate(208,258)"/>
<path d="M0 0 C2.31 0 4.62 0 7 0 C7.33 0.66 7.66 1.32 8 2 C9.134375 2.144375 10.26875 2.28875 11.4375 2.4375 C12.613125 2.623125 13.78875 2.80875 15 3 C15.99 4.485 15.99 4.485 17 6 C13.11318165 7.29560612 11.26169234 6.43927615 7.375 5.25 C5.62316406 4.73179687 5.62316406 4.73179687 3.8359375 4.203125 C2.90007812 3.80609375 1.96421875 3.4090625 1 3 C0.67 2.01 0.34 1.02 0 0 Z " fill="#845BE2" transform="translate(185,250)"/>
<path d="M0 0 C3.95592656 0.31396243 7.24483454 0.74827818 11 2 C11 2.66 11 3.32 11 4 C12.32 3.67 13.64 3.34 15 3 C15 4.32 15 5.64 15 7 C3.47835991 3.92482916 3.47835991 3.92482916 -2 2 C-1.34 1.34 -0.68 0.68 0 0 Z " fill="#9624D5" transform="translate(185,262)"/>
<path d="M0 0 C-0.639375 0.12375 -1.27875 0.2475 -1.9375 0.375 C-2.618125 0.58125 -3.29875 0.7875 -4 1 C-4.33 1.66 -4.66 2.32 -5 3 C-7 3.66666667 -9 4.33333333 -11 5 C-11.60714844 5.51304687 -12.21429688 6.02609375 -12.83984375 6.5546875 C-15.63740307 8.42647221 -17.41940719 8.30644974 -20.75 8.1875 C-21.73484375 8.16042969 -22.7196875 8.13335937 -23.734375 8.10546875 C-24.48203125 8.07066406 -25.2296875 8.03585938 -26 8 C-22.8666637 4.8666637 -18.85762783 4.17099512 -14.6875 2.875 C-13.83220703 2.59785156 -12.97691406 2.32070312 -12.09570312 2.03515625 C-11.26361328 1.77347656 -10.43152344 1.51179687 -9.57421875 1.2421875 C-8.81713623 1.0035498 -8.06005371 0.76491211 -7.2800293 0.51904297 C-4.78882713 -0.04807298 -2.54662686 -0.08929621 0 0 Z " fill="#7751C6" transform="translate(303,216)"/>
<path d="M0 0 C4.58147043 -0.70079854 6.87726732 0.96084057 10.41601562 3.5546875 C11.04185547 4.03164062 11.66769531 4.50859375 12.3125 5 C12.95767578 5.47695312 13.60285156 5.95390625 14.26757812 6.4453125 C15.85292992 7.61964716 17.42755839 8.80843396 19 10 C15.21826172 11.11572266 15.21826172 11.11572266 13.25390625 10.07421875 C12.69574219 9.61660156 12.13757813 9.15898437 11.5625 8.6875 C9.38684089 6.99169718 7.85749568 5.94494151 5.25 4.9375 C2.53425787 3.80594078 1.55278157 2.45176038 0 0 Z " fill="#CDD5E4" transform="translate(209,179)"/>
<path d="M0 0 C4.8274799 1.41292095 8.7162359 3.42974154 13 6 C13 6.99 13 7.98 13 9 C8.38 8.01 3.76 7.02 -1 6 C-1 5.67 -1 5.34 -1 5 C0.65 4.67 2.3 4.34 4 4 C2.68 2.68 1.36 1.36 0 0 Z " fill="#8C41C1" transform="translate(207,186)"/>
<path d="M0 0 C4.86896303 0.59619955 9.32790951 1.56976822 14 3 C12.5625 4.625 12.5625 4.625 10 6 C5.76253412 5.66130379 2.04889258 5.04889258 -1 2 C-0.67 1.34 -0.34 0.68 0 0 Z " fill="#9422D5" transform="translate(202,267)"/>
<path d="M0 0 C1.98 0.66 3.96 1.32 6 2 C5.67 2.598125 5.34 3.19625 5 3.8125 C3.79212012 6.05386471 3.79212012 6.05386471 4 9 C3.34 8.67 2.68 8.34 2 8 C2 7.34 2 6.68 2 6 C0.68 6.99 -0.64 7.98 -2 9 C-2 6 -2 6 -1 4 C-1.99 3.67 -2.98 3.34 -4 3 C-2.68 2.67 -1.36 2.34 0 2 C0 1.34 0 0.68 0 0 Z " fill="#F8F8F8" transform="translate(225,146)"/>
<path d="M0 0 C0.99 0.33 1.98 0.66 3 1 C1.625 2.5 1.625 2.5 0 4 C-0.66 4 -1.32 4 -2 4 C-2.33 4.99 -2.66 5.98 -3 7 C-3.66 7 -4.32 7 -5 7 C-5.268125 7.639375 -5.53625 8.27875 -5.8125 8.9375 C-7 11 -7 11 -10 12 C-10 12.66 -10 13.32 -10 14 C-10.66 14 -11.32 14 -12 14 C-12 14.66 -12 15.32 -12 16 C-12.66 15.67 -13.32 15.34 -14 15 C-9.53648711 9.77674023 -4.9255107 4.79077028 0 0 Z " fill="#6F4AB5" transform="translate(173,225)"/>
<path d="M0 0 C-3.61165093 1.8509711 -7.29251947 3.53929997 -11 5.1875 C-11.61617188 5.47302734 -12.23234375 5.75855469 -12.8671875 6.05273438 C-15.56575057 7.24276594 -17.47147456 8.07030066 -20.4375 7.67578125 C-20.953125 7.45277344 -21.46875 7.22976562 -22 7 C-19.65322019 5.81603901 -17.29938651 4.65311707 -14.9375 3.5 C-14.28072266 3.16613281 -13.62394531 2.83226562 -12.94726562 2.48828125 C-8.37149268 0.27928741 -5.07670782 -0.36969524 0 0 Z " fill="#8D42BC" transform="translate(317,178)"/>
<path d="M0 0 C1.27230469 0.01804688 2.54460937 0.03609375 3.85546875 0.0546875 C5.31919922 0.08949219 5.31919922 0.08949219 6.8125 0.125 C4.01642978 1.58991151 1.24243234 2.74745922 -1.75 3.75 C-2.89662109 4.14058594 -2.89662109 4.14058594 -4.06640625 4.5390625 C-6.1875 5.125 -6.1875 5.125 -9.1875 5.125 C-9.5175 4.135 -9.8475 3.145 -10.1875 2.125 C-6.4507157 -0.36618953 -4.44298181 -0.0815226 0 0 Z " fill="#B0BDCF" transform="translate(314.1875,170.875)"/>
<path d="M0 0 C1.4540625 0.0309375 1.4540625 0.0309375 2.9375 0.0625 C3.5625 2.375 3.5625 2.375 3.9375 5.0625 C2.9475 6.5475 2.9475 6.5475 1.9375 8.0625 C-0.625 8.3125 -0.625 8.3125 -3.0625 8.0625 C-4.0625 7.0625 -4.0625 7.0625 -4.1875 4.0625 C-4.02164894 0.08207447 -4.02164894 0.08207447 0 0 Z M-2.0625 2.0625 C-1.7325 3.7125 -1.4025 5.3625 -1.0625 7.0625 C-0.4025 6.7325 0.2575 6.4025 0.9375 6.0625 C0.9375 4.7425 0.9375 3.4225 0.9375 2.0625 C-0.0525 2.0625 -1.0425 2.0625 -2.0625 2.0625 Z " fill="#E0E2E1" transform="translate(228.0625,352.9375)"/>
<path d="M0 0 C2.50378985 2.18426855 4.89361693 4.42620627 7 7 C7 7.66 7 8.32 7 9 C6.34 9 5.68 9 5 9 C5 8.34 5 7.68 5 7 C4.38125 6.7525 3.7625 6.505 3.125 6.25 C1 5 1 5 -1 1 C-3.97 1 -6.94 1 -10 1 C-10 1.66 -10 2.32 -10 3 C-10.99 2.67 -11.98 2.34 -13 2 C-9.0248799 -1.9751201 -4.82189261 -2.94017842 0 0 Z " fill="#7050B0" transform="translate(316,214)"/>
<path d="M0 0 C0 0.99 0 1.98 0 3 C-4.26616316 4.13764351 -7.56486311 5 -12 5 C-12 4.01 -12 3.02 -12 2 C-8.09971775 -0.60018816 -4.52565431 -0.15085514 0 0 Z " fill="#A116E9" transform="translate(307,196)"/>
<path d="M0 0 C1.32 1.65 2.64 3.3 4 5 C2.88625 4.95875 1.7725 4.9175 0.625 4.875 C-3.04366025 4.58878141 -3.04366025 4.58878141 -5 7 C-5 7.66 -5 8.32 -5 9 C-7.97 8.505 -7.97 8.505 -11 8 C-7.61831569 4.31993178 -4.57478244 2.0214155 0 0 Z " fill="#CEDFF6" transform="translate(310,167)"/>
<path d="M0 0 C1.0725 0.309375 2.145 0.61875 3.25 0.9375 C5.82866222 1.66812096 8.39512102 2.37482904 11 3 C11 3.66 11 4.32 11 5 C7.7 5.33 4.4 5.66 1 6 C0.67 4.02 0.34 2.04 0 0 Z " fill="#CBDFF9" transform="translate(181,165)"/>
<path d="M0 0 C0.66 1.32 1.32 2.64 2 4 C2.99 4 3.98 4 5 4 C5 4.66 5 5.32 5 6 C4.34 6 3.68 6 3 6 C2.67 7.32 2.34 8.64 2 10 C0.68 9.67 -0.64 9.34 -2 9 C-2 8.01 -2 7.02 -2 6 C-2.66 6 -3.32 6 -4 6 C-4 5.34 -4 4.68 -4 4 C-3.01 3.67 -2.02 3.34 -1 3 C-0.67 2.01 -0.34 1.02 0 0 Z " fill="#F6F6F6" transform="translate(274,144)"/>
<path d="M0 0 C0.66 0.33 1.32 0.66 2 1 C1.01 1.33 0.02 1.66 -1 2 C-1 3.65 -1 5.3 -1 7 C-3.64 7.33 -6.28 7.66 -9 8 C-9 7.01 -9 6.02 -9 5 C-7.54735962 4.1361871 -6.0876837 3.28419546 -4.625 2.4375 C-3.40683594 1.72400391 -3.40683594 1.72400391 -2.1640625 0.99609375 C-1.44992187 0.66738281 -0.73578125 0.33867187 0 0 Z " fill="#8030B3" transform="translate(279,204)"/>
<path d="M0 0 C4.99450259 0.6853655 9.5967594 2.02015651 14.375 3.5625 C15.11105469 3.79646484 15.84710938 4.03042969 16.60546875 4.27148438 C18.40481238 4.8440028 20.20257277 5.42149314 22 6 C14.94346541 8.44582464 6.42553869 3.99858472 0 1 C0 0.67 0 0.34 0 0 Z " fill="#6E4BB9" transform="translate(224,224)"/>
<path d="M0 0 C-0.33 0.66 -0.66 1.32 -1 2 C-1.825 2.268125 -2.65 2.53625 -3.5 2.8125 C-4.7375 3.4003125 -4.7375 3.4003125 -6 4 C-6.89386164 6.54775306 -6.89386164 6.54775306 -7 9 C-7.66 8.34 -8.32 7.68 -9 7 C-9 6.34 -9 5.68 -9 5 C-9.99 6.32 -10.98 7.64 -12 9 C-11.875 6.1875 -11.875 6.1875 -11 3 C-7.31304792 0.48616903 -4.43862896 -0.39164373 0 0 Z " fill="#E1E1E1" transform="translate(333,310)"/>
<path d="M0 0 C0.66 0.33 1.32 0.66 2 1 C1.67 1.99 1.34 2.98 1 4 C-1.6171875 5.203125 -1.6171875 5.203125 -4.875 6.25 C-5.94492187 6.60578125 -7.01484375 6.9615625 -8.1171875 7.328125 C-11 8 -11 8 -14 7 C-13 5 -13 5 -10.9375 3.875 C-7.13274727 2.7416694 -3.9631172 2.86565704 0 3 C0 2.01 0 1.02 0 0 Z " fill="#7C57C6" transform="translate(340,240)"/>
<path d="M0 0 C1.67542976 0.28604898 3.34385343 0.61781233 5 1 C3.68 1.33 2.36 1.66 1 2 C2.54294227 6.1690657 2.54294227 6.1690657 5.7578125 9.06640625 C7.47557634 9.78619798 9.23645681 10.4010608 11 11 C11 11.33 11 11.66 11 12 C7.28479387 11.71421491 4.69979407 11.4972221 1.625 9.3125 C-0.34319573 6.51160608 -0.77380358 4.39294627 -1 1 C-0.67 0.67 -0.34 0.34 0 0 Z " fill="#6C2994" transform="translate(185,189)"/>
<path d="M0 0 C1.98 0 3.96 0 6 0 C6.33 0.66 6.66 1.32 7 2 C5.35 2.33 3.7 2.66 2 3 C2 4.32 2 5.64 2 7 C3.32 6.67 4.64 6.34 6 6 C6 6.66 6 7.32 6 8 C4.1875 8.6875 4.1875 8.6875 2 9 C0.1875 7.9375 0.1875 7.9375 -1 6 C-0.6875 2.8125 -0.6875 2.8125 0 0 Z " fill="#DCDDDD" transform="translate(213,353)"/>
<path d="M0 0 C2.00720923 0.28674418 4.0085944 0.61866701 6 1 C4.68 1.33 3.36 1.66 2 2 C2 2.66 2 3.32 2 4 C3.32 4.33 4.64 4.66 6 5 C5.360625 5.12375 4.72125 5.2475 4.0625 5.375 C3.0415625 5.684375 3.0415625 5.684375 2 6 C1.67 6.66 1.34 7.32 1 8 C2.65 8 4.3 8 6 8 C5.34 8.66 4.68 9.32 4 10 C1.375 9.625 1.375 9.625 -1 9 C-1.09765625 2.84765625 -1.09765625 2.84765625 -1 1 C-0.67 0.67 -0.34 0.34 0 0 Z " fill="#ECEDED" transform="translate(260,352)"/>
<path d="M0 0 C1.98 0.99 1.98 0.99 4 2 C4 2.66 4 3.32 4 4 C4.99 4.33 5.98 4.66 7 5 C7 5.99 7 6.98 7 8 C5.35 8 3.7 8 2 8 C0.23537317 4.91190305 0 3.76687864 0 0 Z " fill="#8B5AF1" transform="translate(333,235)"/>
<path d="M0 0 C-0.33 2.97 -0.66 5.94 -1 9 C-1.99 9 -2.98 9 -4 9 C-6.125 4.375 -6.125 4.375 -5 1 C-2 0 -2 0 0 0 Z " fill="#F2F2F2" transform="translate(263,198)"/>
<path d="M0 0 C1.4540625 0.0309375 1.4540625 0.0309375 2.9375 0.0625 C2.6075 1.0525 2.2775 2.0425 1.9375 3.0625 C0.9475 2.7325 -0.0425 2.4025 -1.0625 2.0625 C-1.0625 3.3825 -1.0625 4.7025 -1.0625 6.0625 C0.2575 6.0625 1.5775 6.0625 2.9375 6.0625 C2.9375 6.7225 2.9375 7.3825 2.9375 8.0625 C0.93795254 8.10504356 -1.06291636 8.10330783 -3.0625 8.0625 C-4.0625 7.0625 -4.0625 7.0625 -4.1875 4.0625 C-4.02164894 0.08207447 -4.02164894 0.08207447 0 0 Z " fill="#DCDDDC" transform="translate(274.0625,352.9375)"/>
<path d="M0 0 C1.4540625 0.0309375 1.4540625 0.0309375 2.9375 0.0625 C2.9375 1.0525 2.9375 2.0425 2.9375 3.0625 C4.9175 2.7325 6.8975 2.4025 8.9375 2.0625 C5.49299263 4.35883824 2.99937717 4.60266485 -1.0625 5.0625 C-2.0525 3.7425 -3.0425 2.4225 -4.0625 1.0625 C-3.0625 0.0625 -3.0625 0.0625 0 0 Z " fill="#8355DF" transform="translate(317.0625,245.9375)"/>
<path d="M0 0 C3.65316671 1.24976756 4.78065836 1.67098753 7 5 C1.47322267 5.19392201 -2.75614911 4.7479503 -8 3 C-8 2.67 -8 2.34 -8 2 C-5.03 2.33 -2.06 2.66 1 3 C0.67 2.01 0.34 1.02 0 0 Z " fill="#8F30C8" transform="translate(205,186)"/>
<path d="M0 0 C1.32 0.33 2.64 0.66 4 1 C4.33 2.65 4.66 4.3 5 6 C1.625 6.125 1.625 6.125 -2 6 C-2.66 5.34 -3.32 4.68 -4 4 C-3.34 4 -2.68 4 -2 4 C-2 3.34 -2 2.68 -2 2 C-1.34 2 -0.68 2 0 2 C0 1.34 0 0.68 0 0 Z " fill="#8855EF" transform="translate(163,237)"/>
<path d="M0 0 C3.36591866 1.44253657 5.51047079 3.33264727 8 6 C6.35 6 4.7 6 3 6 C3.33 7.65 3.66 9.3 4 11 C3.01 11.33 2.02 11.66 1 12 C0 10 0 10 1.0625 6.5625 C1.371875 5.386875 1.68125 4.21125 2 3 C1.34 2.01 0.68 1.02 0 0 Z " fill="#F2F2F2" transform="translate(266,169)"/>
<path d="M0 0 C6.64584719 0.34978143 9.83664827 1.80477672 15 6 C12 7 12 7 10.09765625 6.29296875 C9.42605469 5.92816406 8.75445312 5.56335938 8.0625 5.1875 C7.39347656 4.83042969 6.72445312 4.47335938 6.03515625 4.10546875 C5.36355469 3.74066406 4.69195312 3.37585938 4 3 C2.66898144 2.32872374 1.33630943 1.66068095 0 1 C0 0.67 0 0.34 0 0 Z " fill="#8827C0" transform="translate(218,206)"/>
<path d="M0 0 C-0.48545067 6.43222143 -0.48545067 6.43222143 -2.8125 9 C-5 10 -5 10 -7.25 9.6875 C-7.8275 9.460625 -8.405 9.23375 -9 9 C-7.35 8.67 -5.7 8.34 -4 8 C-3.34 5.69 -2.68 3.38 -2 1 C-3.32 0.67 -4.64 0.34 -6 0 C-3 -1 -3 -1 0 0 Z " fill="#702D97" transform="translate(316,191)"/>
<path d="M0 0 C-2.31881505 2.67901932 -4.31814468 3.66204403 -7.6875 4.6875 C-8.89986328 5.06455078 -8.89986328 5.06455078 -10.13671875 5.44921875 C-11.05904297 5.72185547 -11.05904297 5.72185547 -12 6 C-11.67 4.68 -11.34 3.36 -11 2 C-10.01 2 -9.02 2 -8 2 C-7.67 1.34 -7.34 0.68 -7 0 C-2.52459016 -1.26229508 -2.52459016 -1.26229508 0 0 Z " fill="#9A23DB" transform="translate(304,266)"/>
<path d="M0 0 C1.46015291 0.28241641 2.91809793 0.57626614 4.375 0.875 C5.18710938 1.03742188 5.99921875 1.19984375 6.8359375 1.3671875 C9 2 9 2 11 4 C6.06729471 5.6442351 3.45975807 4.18615592 -1 2 C-0.67 1.34 -0.34 0.68 0 0 Z " fill="#8B59EF" transform="translate(191,215)"/>
<path d="M0 0 C5.27754845 0.53852535 9.30037439 1.65018719 14 4 C14.33 4.66 14.66 5.32 15 6 C9.45949887 5.43174347 4.96284034 3.37113483 0 1 C0 0.67 0 0.34 0 0 Z " fill="#7B3CA9" transform="translate(211,193)"/>
<path d="M0 0 C0.66 0.33 1.32 0.66 2 1 C0.53403275 4.9429464 -1.37308275 6.01834588 -5.125 7.75 C-6.49011719 8.39195312 -6.49011719 8.39195312 -7.8828125 9.046875 C-8.58148438 9.36140625 -9.28015625 9.6759375 -10 10 C-8.19118692 5.8432084 -5.83282731 4.39551707 -2 2 C-1.34 1.34 -0.68 0.68 0 0 Z " fill="#CACDD9" transform="translate(284,181)"/>
<path d="M0 0 C2.375 0.25 2.375 0.25 5 1 C6.3125 3.0625 6.3125 3.0625 7 5 C6.01 6.485 6.01 6.485 5 8 C4.34 8 3.68 8 3 8 C2.01 5.36 1.02 2.72 0 0 Z " fill="#FCFCFC" transform="translate(178,312)"/>
<path d="M0 0 C0.99 0 1.98 0 3 0 C3.103125 0.61875 3.20625 1.2375 3.3125 1.875 C3.87525373 4.36526484 3.87525373 4.36526484 7 6 C1.7415998 5.32584613 -3.02638346 3.75734451 -8 2 C-4.90279155 1.12159004 -3.09354597 1.00564594 0 2 C0 1.34 0 0.68 0 0 Z " fill="#7D27BC" transform="translate(199,266)"/>
<path d="M0 0 C0.66 0.33 1.32 0.66 2 1 C1.67 2.65 1.34 4.3 1 6 C2.32 6.66 3.64 7.32 5 8 C3.02 8.33 1.04 8.66 -1 9 C-2 3.25 -2 3.25 -2 1 C-1.34 0.67 -0.68 0.34 0 0 Z " fill="#BECEE7" transform="translate(322,162)"/>
<path d="M0 0 C1.65 0 3.3 0 5 0 C5.33 0.66 5.66 1.32 6 2 C5.34 2 4.68 2 4 2 C4 4.31 4 6.62 4 9 C3.01 9 2.02 9 1 9 C1.33 7.02 1.66 5.04 2 3 C1.01 2.67 0.02 2.34 -1 2 C-0.67 1.34 -0.34 0.68 0 0 Z " fill="#E3E6E5" transform="translate(282,352)"/>
<path d="M0 0 C0.99 0.33 1.98 0.66 3 1 C1.35 4.63 -0.3 8.26 -2 12 C-2.66 11.01 -3.32 10.02 -4 9 C-3.3203125 6.73828125 -3.3203125 6.73828125 -2.125 4.3125 C-1.73570312 3.50425781 -1.34640625 2.69601562 -0.9453125 1.86328125 C-0.63335937 1.24839844 -0.32140625 0.63351562 0 0 Z " fill="#EBEDEC" transform="translate(197,322)"/>
<path d="M0 0 C0.99 0.33 1.98 0.66 3 1 C2.67 2.65 2.34 4.3 2 6 C1.01 5.67 0.02 5.34 -1 5 C-1.99 6.98 -2.98 8.96 -4 11 C-5 8 -5 8 -4.2578125 6.2109375 C-1.11111111 1.11111111 -1.11111111 1.11111111 0 0 Z " fill="#F2F2F2" transform="translate(161,314)"/>
<path d="M0 0 C0.33 0 0.66 0 1 0 C1 1.98 1 3.96 1 6 C0.34 6 -0.32 6 -1 6 C-1.12375 6.639375 -1.2475 7.27875 -1.375 7.9375 C-1.58125 8.618125 -1.7875 9.29875 -2 10 C-2.99 10.495 -2.99 10.495 -4 11 C-4 10.01 -4 9.02 -4 8 C-4.99 8.33 -5.98 8.66 -7 9 C-7 8.34 -7 7.68 -7 7 C-5.1875 5.3125 -5.1875 5.3125 -3 4 C-2.01 4.33 -1.02 4.66 0 5 C0 3.35 0 1.7 0 0 Z " fill="#9623D9" transform="translate(263,283)"/>
<path d="M0 0 C-2.46278801 2.46278801 -4.70676982 2.99771255 -8 4 C-8.33 5.98 -8.66 7.96 -9 10 C-9.33 10 -9.66 10 -10 10 C-10.29296875 3.9453125 -10.29296875 3.9453125 -10 2 C-6.3558226 -0.4294516 -4.28758728 -0.16179575 0 0 Z " fill="#7A28B1" transform="translate(274,279)"/>
<path d="M0 0 C6.39559286 0.60335782 6.39559286 0.60335782 9 2.3125 C10 4 10 4 9.6875 6.1875 C9.3471875 7.0846875 9.3471875 7.0846875 9 8 C9 7.34 9 6.68 9 6 C7.68 5.67 6.36 5.34 5 5 C5 4.01 5 3.02 5 2 C3.35 1.67 1.7 1.34 0 1 C0 0.67 0 0.34 0 0 Z " fill="#A01AEB" transform="translate(229,276)"/>
<path d="M0 0 C1.32 0 2.64 0 4 0 C4 0.66 4 1.32 4 2 C5.65 2 7.3 2 9 2 C8.01 2.33 7.02 2.66 6 3 C6 3.99 6 4.98 6 6 C3.5625 5.25 3.5625 5.25 1 4 C0.1875 1.875 0.1875 1.875 0 0 Z " fill="#981EE0" transform="translate(186,191)"/>
<path d="M0 0 C0 0.99 0 1.98 0 3 C-5.94 1.515 -5.94 1.515 -12 0 C-12 -0.33 -12 -0.66 -12 -1 C-7.31034294 -2.11658501 -4.46236469 -1.80619523 0 0 Z " fill="#8059D6" transform="translate(243,268)"/>
<path d="M0 0 C0.99 0.33 1.98 0.66 3 1 C5.14255793 0.61067144 5.14255793 0.61067144 7 0 C4.63055987 2.61885488 2.16266898 4.41866551 -1 6 C-1.99 5.67 -2.98 5.34 -4 5 C-2.68 3.35 -1.36 1.7 0 0 Z " fill="#512C73" transform="translate(259,216)"/>
<path d="M0 0 C0.33 0.66 0.66 1.32 1 2 C1.66 2.33 2.32 2.66 3 3 C-1.22949995 5.41685712 -4.12335991 6.34833144 -9 6 C-8.67 5.34 -8.34 4.68 -8 4 C-5.66666667 3.33333333 -3.33333333 2.66666667 -1 2 C-0.67 1.34 -0.34 0.68 0 0 Z " fill="#D5D5D5" transform="translate(339,337)"/>
<path d="M0 0 C0.66 0.66 1.32 1.32 2 2 C1.01 3.98 0.02 5.96 -1 8 C-1.66 7.01 -2.32 6.02 -3 5 C-3.99387334 3.66209359 -4.9926892 2.32781878 -6 1 C-3.125 0.375 -3.125 0.375 0 0 Z " fill="#F3F3F3" transform="translate(316,310)"/>
<path d="M0 0 C2.7839183 1.39195915 2.97898997 3.15575779 4 6 C1.36 6 -1.28 6 -4 6 C-2.68 4.02 -1.36 2.04 0 0 Z " fill="#EEEFEF" transform="translate(191,336)"/>
<path d="M0 0 C0.99 0 1.98 0 3 0 C5.68099266 3.50591348 6.49516338 6.65840504 7 11 C6.01 11.33 5.02 11.66 4 12 C4.0825 11.0925 4.165 10.185 4.25 9.25 C3.94651946 5.30475293 2.89074879 4.52940519 0 2 C0 1.34 0 0.68 0 0 Z " fill="#F0F0F0" transform="translate(175,311)"/>
<path d="M0 0 C3.625 0.375 3.625 0.375 7 1 C7.33 2.32 7.66 3.64 8 5 C4.7 4.01 1.4 3.02 -2 2 C-1.34 1.34 -0.68 0.68 0 0 Z " fill="#8D25C9" transform="translate(185,262)"/>
<path d="M0 0 C2.4375 0.8125 2.4375 0.8125 5 2 C5.33 2.99 5.66 3.98 6 5 C3.03 4.67 0.06 4.34 -3 4 C-2.01 3.67 -1.02 3.34 0 3 C0 2.01 0 1.02 0 0 Z " fill="#9823DC" transform="translate(200,184)"/>
<path d="M0 0 C1.76462683 3.08809695 2 4.23312136 2 8 C-0.31 8 -2.62 8 -5 8 C-3.68 7.67 -2.36 7.34 -1 7 C-1.33 5.68 -1.66 4.36 -2 3 C-1.34 3 -0.68 3 0 3 C0 2.01 0 1.02 0 0 Z " fill="#CDE3F8" transform="translate(319,163)"/>
<path d="M0 0 C0.33 0.66 0.66 1.32 1 2 C5.95 2 10.9 2 16 2 C16 2.33 16 2.66 16 3 C14.41058594 3.09087891 14.41058594 3.09087891 12.7890625 3.18359375 C11.40102779 3.26800127 10.01300768 3.35264917 8.625 3.4375 C7.92632812 3.47681641 7.22765625 3.51613281 6.5078125 3.55664062 C2.62639508 3.74280134 2.62639508 3.74280134 -1 5 C-0.67 3.35 -0.34 1.7 0 0 Z " fill="#FBFCFC" transform="translate(193,332)"/>
<path d="M0 0 C-1.43011973 0.86646667 -2.86940619 1.71781829 -4.3125 2.5625 C-5.51326172 3.27599609 -5.51326172 3.27599609 -6.73828125 4.00390625 C-9 5 -9 5 -12 4 C-8.81646865 0.10901724 -4.81837115 -1.60612372 0 0 Z " fill="#8F61E9" transform="translate(284,261)"/>
<path d="M0 0 C2.31 0.66 4.62 1.32 7 2 C4.4345406 4.5654594 2.52313332 4.54046087 -1 5 C-0.67 3.35 -0.34 1.7 0 0 Z " fill="#8D5CF7" transform="translate(321,244)"/>
<path d="M0 0 C0 0.99 0 1.98 0 3 C-2.35438733 4.42944945 -3.48032433 5.08661261 -6.25 4.625 C-6.8275 4.41875 -7.405 4.2125 -8 4 C-7.67 3.34 -7.34 2.68 -7 2 C-4.6859378 1.26924352 -2.35171131 0.59861742 0 0 Z " fill="#8D58ED" transform="translate(280,223)"/>
<path d="M0 0 C-2.76223278 2.76223278 -5.20706617 2.57856291 -9 3 C-8.67 2.01 -8.34 1.02 -8 0 C-4.71023192 -1.09658936 -3.28696233 -0.79953138 0 0 Z " fill="#A013EC" transform="translate(319,181)"/>
<path d="M0 0 C1.13643966 3.40931897 0.86747764 4.00335456 -0.4375 7.1875 C-0.72496094 7.90292969 -1.01242188 8.61835938 -1.30859375 9.35546875 C-1.53675781 9.89816406 -1.76492187 10.44085938 -2 11 C-3.25 9.4375 -3.25 9.4375 -4 7 C-2.93237266 4.42998985 -1.53455057 2.3469597 0 0 Z " fill="#EBEBEB" transform="translate(244,327)"/>
<path d="M0 0 C3.3 0 6.6 0 10 0 C6.55549263 2.29633824 4.06187717 2.54016485 0 3 C0 2.01 0 1.02 0 0 Z " fill="#805BCC" transform="translate(253,269)"/>
<path d="M0 0 C3.3 0.99 6.6 1.98 10 3 C10 3.99 10 4.98 10 6 C6.40992874 4.66654496 3.20429093 3.1056769 0 1 C0 0.67 0 0.34 0 0 Z " fill="#4B236B" transform="translate(232,214)"/>
<path d="M0 0 C0.66 0.33 1.32 0.66 2 1 C2 3.64 2 6.28 2 9 C1.01 9.495 1.01 9.495 0 10 C-0.19412181 8.52168779 -0.38012131 7.04230684 -0.5625 5.5625 C-0.66691406 4.73878906 -0.77132812 3.91507812 -0.87890625 3.06640625 C-0.91886719 2.38449219 -0.95882812 1.70257813 -1 1 C-0.67 0.67 -0.34 0.34 0 0 Z " fill="#E0E2E1" transform="translate(253,352)"/>
<path d="M0 0 C-1.26839526 0.50615298 -2.53983102 1.00469099 -3.8125 1.5 C-4.87404297 1.91765625 -4.87404297 1.91765625 -5.95703125 2.34375 C-8 3 -8 3 -11 3 C-10.67 2.01 -10.34 1.02 -10 0 C-3.375 -1.125 -3.375 -1.125 0 0 Z " fill="#7B55CE" transform="translate(301,257)"/>
<path d="M0 0 C2.0625 0.75 2.0625 0.75 4 2 C4.33 2.99 4.66 3.98 5 5 C4.01 5.495 4.01 5.495 3 6 C0.9375 5.25 0.9375 5.25 -1 4 C-1.33 3.01 -1.66 2.02 -2 1 C-1.34 0.67 -0.68 0.34 0 0 Z " fill="#7D569A" transform="translate(229,198)"/>
<path d="M0 0 C0 0.66 0 1.32 0 2 C-3.63 2.66 -7.26 3.32 -11 4 C-6.63257174 0.72442881 -5.35208648 0 0 0 Z " fill="#8B24C7" transform="translate(321,182)"/>
<path d="M0 0 C0.66 0.33 1.32 0.66 2 1 C2 1.99 2 2.98 2 4 C0.1875 5.0625 0.1875 5.0625 -2 6 C-2.99 5.67 -3.98 5.34 -5 5 C-3.35 3.35 -1.7 1.7 0 0 Z " fill="#C7D7E5" transform="translate(289,178)"/>
<path d="M0 0 C1.65 0 3.3 0 5 0 C4.67 0.99 4.34 1.98 4 3 C1.69 3.33 -0.62 3.66 -3 4 C-3 3.34 -3 2.68 -3 2 C-2.01 2 -1.02 2 0 2 C0 1.34 0 0.68 0 0 Z " fill="#9B19E9" transform="translate(267,276)"/>
<path d="M0 0 C7.625 0.875 7.625 0.875 11 2 C11 2.66 11 3.32 11 4 C7.0507432 3.44894091 3.65079826 2.61064629 0 1 C0 0.67 0 0.34 0 0 Z " fill="#6E259F" transform="translate(173,257)"/>
<path d="M0 0 C0.99 0.33 1.98 0.66 3 1 C2.34 2.65 1.68 4.3 1 6 C-0.32 5.67 -1.64 5.34 -3 5 C-3 4.01 -3 3.02 -3 2 C-2.01 1.34 -1.02 0.68 0 0 Z " fill="#9B53D1" transform="translate(292,186)"/>
<path d="M0 0 C0.33 1.32 0.66 2.64 1 4 C-0.98 4 -2.96 4 -5 4 C-4.67 3.01 -4.34 2.02 -4 1 C-2 0 -2 0 0 0 Z " fill="#8D21CD" transform="translate(276,275)"/>
<path d="M0 0 C0.66 0 1.32 0 2 0 C1.95875 0.78375 1.9175 1.5675 1.875 2.375 C1.71271266 5.16116119 1.71271266 5.16116119 4 7 C2.35 7 0.7 7 -1 7 C-0.67 4.69 -0.34 2.38 0 0 Z " fill="#8A56EE" transform="translate(254,262)"/>
<path d="M0 0 C1.65 0 3.3 0 5 0 C5 0.66 5 1.32 5 2 C5.99 2.33 6.98 2.66 8 3 C4.37673261 4.2077558 3.35853631 3.54311128 0 2 C0 1.34 0 0.68 0 0 Z " fill="#8057D5" transform="translate(208,258)"/>
<path d="M0 0 C1.258125 -0.04125 2.51625 -0.0825 3.8125 -0.125 C4.52019531 -0.14820313 5.22789062 -0.17140625 5.95703125 -0.1953125 C8 0 8 0 11 2 C6.58937864 3.0257259 4.07369424 3.03684712 0 1 C0 0.67 0 0.34 0 0 Z " fill="#71319E" transform="translate(162,255)"/>
<path d="M0 0 C-3.85756507 2.15305957 -6.55129785 3.39253254 -11 3 C-10.01 2.67 -9.02 2.34 -8 2 C-8 1.34 -8 0.68 -8 0 C-4.71303767 -0.79953138 -3.28976808 -1.09658936 0 0 Z " fill="#8C5BF1" transform="translate(268,229)"/>
<path d="M0 0 C-3 2 -3 2 -6 3 C-8.1875 2.0625 -8.1875 2.0625 -10 1 C-6.21812119 -0.83691257 -4.05431692 -1.15837626 0 0 Z " fill="#921ECE" transform="translate(214,201)"/>
<path d="M0 0 C0.33 0.99 0.66 1.98 1 3 C-2.83325617 5.70582788 -5.32538149 6.32613618 -10 6 C-10 5.67 -10 5.34 -10 5 C-8.72125 4.9175 -7.4425 4.835 -6.125 4.75 C-3.94666582 4.54130069 -3.94666582 4.54130069 -2 4 C-0.4100567 2.07935207 -0.4100567 2.07935207 0 0 Z " fill="#61268C" transform="translate(323,180)"/>
<path d="M0 0 C0.7425 0.0825 1.485 0.165 2.25 0.25 C2.25 0.91 2.25 1.57 2.25 2.25 C-0.72 2.91 -3.69 3.57 -6.75 4.25 C-3.42692308 0.31153846 -3.42692308 0.31153846 0 0 Z " fill="#D0E2F5" transform="translate(328.75,160.75)"/>
<path d="M0 0 C-0.99 0.495 -0.99 0.495 -2 1 C-2 1.66 -2 2.32 -2 3 C-3.32 3.33 -4.64 3.66 -6 4 C-6.33 2.68 -6.66 1.36 -7 0 C-4.3333581 -1.33332095 -2.83319697 -0.67102033 0 0 Z " fill="#F0EFF1" transform="translate(293,161)"/>
<path d="M0 0 C0.598125 0.20625 1.19625 0.4125 1.8125 0.625 C0.8225 0.625 -0.1675 0.625 -1.1875 0.625 C-1.1875 1.945 -1.1875 3.265 -1.1875 4.625 C-2.1775 4.625 -3.1675 4.625 -4.1875 4.625 C-4.5175 3.635 -4.8475 2.645 -5.1875 1.625 C-2.1875 -0.375 -2.1875 -0.375 0 0 Z " fill="#BDCCE6" transform="translate(309.1875,171.375)"/>
<path d="M0 0 C0.33 0.66 0.66 1.32 1 2 C1.66 2.33 2.32 2.66 3 3 C2.01 4.485 2.01 4.485 1 6 C0.01 5.67 -0.98 5.34 -2 5 C-2 4.01 -2 3.02 -2 2 C-1.34 2 -0.68 2 0 2 C0 1.34 0 0.68 0 0 Z " fill="#F4F4F4" transform="translate(211,159)"/>
<path d="" fill="#CECECE" transform="translate(0,0)"/>
<path d="" fill="#D1D1D1" transform="translate(0,0)"/>
<path d="" fill="#FFFFFF" transform="translate(0,0)"/>
<path d="" fill="#A596B4" transform="translate(0,0)"/>
<path d="" fill="#FFFFFF" transform="translate(0,0)"/>
<path d="" fill="#CCCCCC" transform="translate(0,0)"/>
<path d="" fill="#CCCCCC" transform="translate(0,0)"/>
<path d="" fill="#B6B6B6" transform="translate(0,0)"/>
<path d="" fill="#FFFFFF" transform="translate(0,0)"/>
<path d="" fill="#DBDBDB" transform="translate(0,0)"/>
<path d="" fill="#DFDFDF" transform="translate(0,0)"/>
</svg>
